<svg width="71" height="70" viewBox="0 0 71 70" fill="none" xmlns="http://www.w3.org/2000/svg">
<path d="M61.3526 37.7082C65.3017 37.9574 65.987 37.606 65.987 37.3162C65.987 37.2035 66.127 36.8934 62.3687 36.9172C60.5683 36.9308 58.8736 36.9035 58.8687 37.3466C58.8666 38.0561 60.0671 37.6249 61.3526 37.7082Z" fill="#FF9F1C"/>
<path d="M65.9977 56.9286C66.7001 55.0767 43.2375 54.2822 42.4427 57.2831C42.1119 58.5312 50.7125 62.3851 50.6169 63.7354C50.5214 65.0857 45.321 66.0338 45.761 67.1797C46.2009 68.3256 62.7609 68.2878 62.5767 67.1797C62.3927 66.0716 55.9054 64.26 55.6713 63.343C55.4371 62.426 65.0429 59.4248 65.9977 56.9286Z" fill="#FF9F1C"/>
<path d="M66.3077 20.1799C66.4372 16.6298 66.7921 8.05623 65.6563 7.35378C64.3197 6.52498 59.0305 6.37833 53.6968 6.46023C48.7314 6.53863 43.732 6.78433 41.6568 7.72023C41.4353 7.81893 41.0394 8.15003 40.8144 11.1576C40.4941 15.4307 40.7055 24.0348 42.0184 25.2759C44.4684 27.0563 61.0468 26.3458 63.1517 25.2556C63.2542 25.2024 63.3319 25.1111 63.3681 25.0014C63.4042 24.8917 63.3961 24.7722 63.3453 24.6684C63.2945 24.5647 63.2051 24.4849 63.0963 24.4462C62.9875 24.4074 62.8678 24.4128 62.7629 24.4611C60.2597 25.6885 43.8905 25.832 42.6288 24.6382C41.4038 23.4776 41.2197 9.23818 42.1717 8.44648C43.5391 7.31773 63.7551 6.88793 65.0547 8.01353C65.7333 8.60013 65.6171 14.7419 65.4229 20.1505C65.4188 20.2676 65.4614 20.3815 65.5413 20.4672C65.6212 20.5529 65.7319 20.6033 65.849 20.6074C65.9661 20.6115 66.08 20.5689 66.1657 20.489C66.2514 20.4091 66.3018 20.2984 66.3059 20.1813L66.3077 20.1799Z" fill="#FF9F1C"/>
<path d="M59.5861 16.5375C59.6366 16.5666 59.6923 16.5853 59.7501 16.5927C59.8079 16.6 59.8666 16.5958 59.9227 16.5803C59.9789 16.5647 60.0314 16.5382 60.0772 16.5022C60.123 16.4662 60.1612 16.4214 60.1895 16.3706C61.208 14.4806 61.7995 13.3935 61.5811 12.8821C61.3151 12.2647 60.2511 12.5671 58.5116 11.6988C58.459 11.6743 58.4022 11.6604 58.3442 11.658C58.2863 11.6555 58.2284 11.6645 58.174 11.6845C58.1195 11.7044 58.0696 11.7349 58.0269 11.7741C57.9842 11.8134 57.9497 11.8607 57.9254 11.9133C57.7206 12.7761 59.2858 12.8443 59.7531 13.1275C56.7557 14.0585 53.9217 24.85 51.5585 18.0996C50.9548 16.674 50.2796 15.0612 48.7277 15.1396C46.1328 15.0952 45.7814 20.1901 43.4931 20.3196C43.3777 20.3175 43.2661 20.3606 43.1821 20.4397C43.098 20.5188 43.0483 20.6276 43.0434 20.7429C43.0385 20.8582 43.0789 20.9708 43.1559 21.0567C43.2329 21.1426 43.3405 21.195 43.4557 21.2027C46.2322 21.3749 46.5318 16.3772 48.7722 16.0192C49.6384 15.9751 50.1123 16.947 50.7399 18.4405C53.8671 26.4513 57.0626 15.2523 60.4422 13.7617C60.4387 14.4232 58.9621 15.7976 59.5861 16.5375Z" fill="#FF9F1C"/>
<path d="M26.5784 48.0347L29.5761 45.0062C29.5761 45.0062 27.5265 42.2576 27.305 41.7837C27.0834 41.3098 29.293 39.6354 29.293 39.6354L27.305 37.3198H25.6509L23.4375 39.6386C23.4375 39.6386 25.1259 40.7845 25.2484 41.3914C25.3709 41.9983 23.1445 44.7864 23.1445 44.7864L26.5784 48.0347Z" fill="#FF9F1C"/>
<path d="M23.9456 2.47718C16.703 2.54508 14.1067 2.81248 13.5614 3.44213C11.9679 5.28243 12.1054 13.0899 13.132 13.2421C13.1953 13.2451 13.2585 13.2339 13.317 13.2093C13.3754 13.1847 13.4276 13.1474 13.4698 13.1C13.5119 13.0526 13.5429 12.9964 13.5605 12.9355C13.5781 12.8746 13.5819 12.8105 13.5716 12.7479C13.3329 10.7802 12.992 5.38148 14.2016 4.05148C14.7518 3.63988 19.4425 3.40608 23.9799 3.36373C29.9068 3.30878 38.7019 2.21468 44.7926 2.79428C46.9444 2.97838 49.8942 3.22758 55.6234 3.25803C55.7383 3.25529 55.8477 3.20779 55.9282 3.12566C56.0087 3.04353 56.054 2.93323 56.0545 2.81821C56.055 2.7032 56.0105 2.59254 55.9307 2.50977C55.8508 2.427 55.7418 2.37865 55.6269 2.37498C49.9317 2.34418 47.0022 2.09498 44.864 1.91123C38.7632 1.32113 29.9103 2.42153 23.9456 2.47718Z" fill="#FF9F1C"/>
<path d="M55.0402 33.8002C55.3552 33.8786 63.9302 34.5572 63.8213 33.3536C63.8145 33.2957 63.7962 33.2397 63.7676 33.189C63.739 33.1382 63.7006 33.0936 63.6546 33.0578C63.6087 33.022 63.556 32.9957 63.4998 32.9804C63.4436 32.965 63.3849 32.961 63.3271 32.9686C61.5771 33.1936 55.988 32.9686 55.1767 32.8986C55.0673 32.9004 54.9622 32.9408 54.8799 33.0128C54.7976 33.0848 54.7435 33.1835 54.7271 33.2916C54.7108 33.3997 54.7332 33.5101 54.7905 33.6032C54.8478 33.6963 54.9363 33.7661 55.0402 33.8002Z" fill="#FF9F1C"/>
<path d="M65.1417 29.7628C65.3293 29.7183 65.4315 28.8965 64.7084 28.8797C62.8432 28.8283 62.9146 29.1597 57.6664 29.0635C55.6476 29.0264 53.5301 28.8727 53.5332 29.599C53.5331 29.6573 53.5444 29.715 53.5667 29.7688C53.5889 29.8227 53.6216 29.8716 53.6628 29.9129C53.704 29.9541 53.7529 29.9867 53.8068 30.009C53.8607 30.0312 53.9184 30.0426 53.9767 30.0424C56.4113 30.0253 62.8124 30.2983 65.1417 29.7628Z" fill="#FF9F1C"/>
<path d="M51.7084 41.5039C51.6501 41.5049 51.5925 41.5176 51.5392 41.5413C51.4859 41.565 51.4379 41.5992 51.3981 41.6419C51.3583 41.6845 51.3275 41.7348 51.3076 41.7896C51.2877 41.8445 51.279 41.9028 51.2821 41.961C51.2839 42.0191 51.2971 42.0762 51.3211 42.1292C51.3451 42.1821 51.3793 42.2297 51.4218 42.2693C51.4643 42.3089 51.5143 42.3397 51.5687 42.3599C51.6232 42.3801 51.6812 42.3893 51.7392 42.387C68.8381 41.4903 68.6404 42.2302 68.4836 41.2719C68.3268 40.3136 56.3816 41.4882 51.7084 41.5039Z" fill="#FF9F1C"/>
<path d="M5.14514 46.2988C2.01439 49.8688 5.87489 56.2601 10.5642 54.2823C9.73189 55.9703 8.17684 58.5652 6.44469 63.0638C6.41151 63.1277 6.39584 63.1992 6.39927 63.2711C6.4027 63.343 6.42511 63.4128 6.46422 63.4732C6.50333 63.5336 6.55775 63.5827 6.62194 63.6153C6.68613 63.6479 6.75781 63.6629 6.82969 63.6588C11.2288 63.8054 20.6477 67.884 21.4152 65.7322C22.6259 62.3424 23.0144 61.2102 23.4452 61.2648C23.9055 61.3194 24.0829 62.9766 23.9909 65.6093C23.9887 65.7585 24.0396 65.9035 24.1346 66.0185C24.2296 66.1335 24.3624 66.2109 24.5092 66.2369C27.0772 66.6086 31.6842 63.0004 36.7452 63.2188C37.0952 63.2052 37.6521 63.2391 37.5191 62.6662C36.9496 61.9501 37.2041 55.0411 36.1758 55.4537C33.836 56.2381 28.5741 56.8348 25.737 56.18C25.3129 56.0915 24.9217 55.8867 24.6073 55.5886C24.2928 55.2905 24.0675 54.9108 23.9566 54.4919C23.8376 54.185 23.5985 54.2021 23.3462 54.4135C22.6063 55.0707 21.7126 55.5305 20.7478 55.7505C17.8778 56.3063 15.2059 55.1741 11.24 53.3394C11.1105 53.2781 10.89 53.121 10.6909 53.1994C9.98494 53.4822 7.71589 54.403 6.45204 52.8581C6.90214 52.6229 8.18454 52.6163 7.96299 51.8725C7.94417 51.8165 7.91407 51.765 7.87455 51.721C7.83502 51.6771 7.78691 51.6418 7.73318 51.6171C7.67945 51.5925 7.62125 51.5792 7.56217 51.578C7.50309 51.5768 7.44439 51.5877 7.38969 51.61C6.86119 51.8144 6.17589 52.0192 5.79719 52.1319C5.47781 51.6795 5.23909 51.1753 5.09159 50.6416C6.68374 50.2016 6.99769 50.2118 6.89199 49.7036C6.79294 49.216 6.28509 49.3728 4.93199 49.7718C4.82211 48.8009 5.09075 47.825 5.68204 47.0471C6.46989 48.2101 8.56709 51.2688 10.238 49.6423C10.6405 49.2535 11.3667 45.1749 11.463 42.5219C11.4801 41.9969 12.0191 42.0718 12.023 42.467C12.0335 43.545 11.5183 49.9458 10.6317 51.7157C10.6024 51.7961 10.5893 51.8814 10.5932 51.9669C10.597 52.0523 10.6178 52.1361 10.6542 52.2135C10.6907 52.2908 10.7421 52.3602 10.8055 52.4176C10.869 52.4749 10.9431 52.5192 11.0237 52.5477C16.5961 55.3127 22.1684 56.8618 24.3853 51.1634C24.6751 50.42 25.1763 50.7711 24.924 51.5691C24.7101 52.124 24.5891 52.7104 24.5659 53.3047C24.5624 54.0177 25.0843 55.1293 25.8242 55.4261C27.0278 55.9136 34.3225 55.7225 36.7267 54.4951C37.1838 54.2599 37.5145 54.0859 37.4267 53.7482C36.9563 51.9443 36.7039 50.1915 36.9528 49.5503C36.9625 49.5184 36.9819 49.4903 37.0082 49.4699C37.0346 49.4495 37.0666 49.4377 37.0999 49.4362C37.1332 49.4347 37.1661 49.4436 37.1942 49.4615C37.2222 49.4795 37.244 49.5058 37.2566 49.5366C39.0766 54.4748 46.3685 49.3795 46.3566 45.5158C50.5702 43.2408 52.5026 38.3454 49.2178 35.0669C51.4823 29.9548 44.8078 27.8713 41.9847 32.7219C41.3216 32.8671 40.7012 33.1641 40.1721 33.5895C39.6431 34.0149 39.22 34.5571 38.9359 35.1737C38.0266 34.1508 36.8982 33.3465 35.6347 32.8206C35.9548 31.6672 36.1267 30.4776 36.1464 29.2807C37.623 27.5962 39.0314 24.2575 37.0774 21.7648C38.9191 17.9589 36.2248 13.935 32.6747 14.7225C30.7494 10.9383 25.5078 10.8501 23.09 14.3994C20.1433 11.6509 13.85 15.1533 13.7184 19.0068C10.3321 19.7842 10.3003 22.7753 11.7643 24.8655C9.39099 26.4716 10.2467 31.1098 13.3775 31.8088C13.5985 32.4307 13.9137 33.015 14.312 33.5413C5.71529 36.7025 0.255286 38.7283 5.14514 46.2988ZM41.9109 33.6127C42.7089 33.4492 43.8786 33.3162 44.7585 34.2028C45.5635 35.0179 44.8677 36.3028 42.9546 36.3206C42.8708 36.3301 42.7915 36.3634 42.726 36.4166C42.6606 36.4698 42.6119 36.5407 42.5856 36.6208C42.5594 36.701 42.5567 36.787 42.5779 36.8686C42.5992 36.9502 42.6434 37.024 42.7054 37.0812C44.2639 39.1 46.9446 37.9131 48.7009 35.7816C49.1887 36.3073 49.5573 36.9321 49.7817 37.6132C49.2024 38.1581 48.5533 38.6236 47.8514 38.9974C47.7669 39.0457 47.7006 39.1203 47.6624 39.2099C47.6243 39.2994 47.6166 39.399 47.6404 39.4933C47.6642 39.5877 47.7183 39.6717 47.7943 39.7324C47.8703 39.7932 47.9641 39.8273 48.0614 39.8297C48.4265 39.765 49.0334 39.3558 49.978 38.6397C50.0047 40.2682 49.3841 41.8406 48.2525 43.0119C47.1647 44.1813 46.0668 45.2386 44.0956 45.1158C37.8187 44.7301 37.6038 34.4996 41.9109 33.6127ZM27.0047 46.8206C25.0678 47.7859 23.0592 43.7889 21.5416 42.1306L25.8403 37.7528C26.2564 37.77 26.6757 37.7563 27.0849 37.7392C29.0764 40.0719 30.0725 41.2315 30.6076 41.8111C29.293 44.0413 27.9872 45.9509 27.0047 46.8206ZM21.0232 41.3956C19.8024 39.6362 18.6702 37.7808 17.7427 36.1782C19.9606 37.0127 22.2869 37.5246 24.6503 37.6982L21.0232 41.3956ZM28.1744 37.658C30.6741 37.399 32.6999 36.5905 34.0194 35.3424C33.1047 37.2644 32.1208 39.1527 31.0696 41.0036C30.3777 40.2217 29.1702 38.8168 28.1744 37.6573V37.658ZM36.1919 35.5779C35.9119 34.6777 36.5944 34.6469 36.915 35.2503C37.37 36.1201 37.8869 37.9411 37.4949 38.6845C37.1572 39.3222 36.1579 39.5473 35.3974 39.7695C35.1926 39.8276 35.179 39.9403 35.2644 40.1346C36.4894 42.8663 34.6165 44.1039 31.8918 45.3965C31.4994 45.5841 31.1753 44.9159 31.5607 44.701C32.7955 44.0052 34.2753 42.8355 34.6641 42.3343C34.9165 42.0102 34.62 40.7891 34.1766 39.8584C33.7639 38.9852 36.6794 38.8784 36.7375 38.2418C36.782 37.7462 36.4887 36.532 36.1919 35.5772V35.5779ZM13.1251 30.8001C11.0951 29.944 10.4301 26.3551 12.6477 25.429C12.7244 25.405 12.7931 25.3608 12.8468 25.3011C12.9005 25.2413 12.9371 25.1682 12.9528 25.0895C12.9685 25.0107 12.9626 24.9292 12.9359 24.8534C12.9092 24.7777 12.8626 24.7105 12.801 24.659C11.086 23.1995 11.4644 19.9189 14.2164 19.8335C14.3319 19.822 14.4382 19.7654 14.5122 19.6761C14.5863 19.5867 14.6221 19.4717 14.6119 19.3561C14.2917 16.0584 20.5084 12.4741 22.8019 15.3798C22.8465 15.433 22.9029 15.475 22.9665 15.5025C23.0302 15.53 23.0994 15.5423 23.1687 15.5383C23.2379 15.5343 23.3053 15.5142 23.3654 15.4796C23.4255 15.445 23.4767 15.3968 23.5149 15.3388C25.5645 11.8227 30.1953 11.9522 32.037 15.4512C32.5347 16.3993 34.0415 14.6094 35.7232 16.4879C36.6441 17.5165 37.3399 19.4482 36.16 21.6035C36.116 21.6844 36.098 21.7768 36.1083 21.8683C36.1187 21.9597 36.1569 22.0458 36.2178 22.1148C37.749 23.8298 37.1523 26.1559 36.16 27.7656C36.37 24.2908 35.0481 19.9357 32.9166 19.1038C32.3846 18.8938 31.505 20.1538 29.9874 19.7173C29.2269 19.4993 29.1247 18.3978 28.6063 18.3229C27.8286 18.2067 27.2763 19.6631 24.8106 19.5129C23.7126 19.4482 23.2863 17.4479 22.3315 18.367C20.5115 20.1198 19.3565 20.8324 18.0244 19.767C17.9495 19.706 17.8567 19.671 17.7601 19.6673C17.6635 19.6636 17.5683 19.6915 17.4889 19.7467C16.6003 20.3981 15.2566 21.8303 15.2566 25.6432C15.2566 25.9158 15.0316 26.0352 14.8198 26.2091C13.2889 27.4779 12.8829 29.0532 13.1251 30.8001ZM13.9651 29.8201C13.9585 27.3746 16.0651 26.9501 16.0623 26.1451C16.0403 22.9286 17.0469 21.3119 17.7598 20.6676C19.5399 21.8509 21.0981 20.5976 22.7319 19.1909C24.1438 20.9644 26.374 20.705 28.2938 19.4261C29.208 20.9913 31.2709 21.012 32.7612 20.0299C33.7366 20.6301 34.6232 22.2499 34.9336 24.0437C34.0534 23.4822 32.9866 23.2921 31.9667 23.5152C29.8488 23.9278 29.1737 25.2578 29.5044 26.7411C29.9171 28.5996 32.1746 30.3048 35.2815 28.32C36.1915 37.385 26.7184 38.3429 18.2015 35.4134C14.936 34.2098 13.8703 31.352 13.9641 29.8201H13.9651ZM34.3176 27.9339C32.5473 28.8481 31.105 28.0774 30.4774 27.0099C30.3337 26.7668 30.2532 26.4915 30.2434 26.2093C30.2336 25.927 30.2948 25.6468 30.4215 25.3943C30.5481 25.1418 30.736 24.9252 30.9681 24.7642C31.2001 24.6032 31.4689 24.503 31.7497 24.4728C32.3153 25.7352 33.2113 27.1335 34.3166 27.9346L34.3176 27.9339ZM14.4247 37.0262C14.6665 37.057 14.6599 37.2789 14.6018 37.5162C14.5387 38.0777 14.5182 38.6432 14.5405 39.2078C14.5472 39.6134 17.4357 39.8966 16.7739 40.725C15.4988 42.321 18.1214 43.5079 19.226 44.231C19.7751 44.5855 19.5091 45.0321 19.1035 44.9471C17.7976 44.5417 16.6468 43.7468 15.8054 42.6689C15.5889 42.3965 15.4662 42.0613 15.4558 41.7134C15.4454 41.3655 15.5478 41.0236 15.7477 40.7387C14.8779 40.4727 13.7831 40.0429 13.6827 39.4192C13.6536 39.2603 13.4391 36.9072 14.4247 37.0262Z" fill="#001434"/>
<path d="M40.025 67.7251C40.725 67.3433 40.5535 66.4361 40.0421 65.9349C37.9925 63.9259 37.8116 63.8919 35.51 64.1103C30.7524 64.5604 28.8089 66.7021 24.6894 67.1179C21.412 69.1269 40.0897 67.8823 40.025 67.7251Z" fill="#001434"/>
<path d="M29.276 23.2629C29.591 23.2629 29.9613 22.8023 30.8342 22.9899C31.3942 23.1092 31.6767 22.3658 31.0152 22.1236C30.3264 21.8716 29.1427 22.1989 28.8735 22.642C28.8455 22.7093 28.8344 22.7823 28.8409 22.8549C28.8475 22.9274 28.8717 22.9973 28.9113 23.0584C28.9509 23.1196 29.0048 23.1701 29.0684 23.2057C29.1319 23.2414 29.2032 23.261 29.276 23.2629Z" fill="#001434"/>
<path d="M21.5075 29.1658C24.3992 29.0804 25.4803 25.4383 23.4514 24.2039C20.4092 22.3555 17.2788 24.7639 17.6641 26.8194C17.9098 28.1085 19.1901 29.2341 21.5075 29.1658ZM18.7656 25.6735C18.9137 25.3971 19.1303 25.1634 19.3946 24.9947C19.6589 24.826 19.9621 24.728 20.2751 24.71C20.7324 25.9694 21.4324 27.1269 22.3352 28.1169C20.6549 28.7427 17.78 27.7231 18.7656 25.6735Z" fill="#001434"/>
<path d="M25.7056 28.2961C27.2061 28.9783 29.0852 28.3336 28.71 26.0831C28.6841 25.971 28.6154 25.8734 28.5186 25.8111C28.4219 25.7488 28.3046 25.7267 28.1918 25.7495C28.079 25.7723 27.9795 25.8382 27.9146 25.9331C27.8496 26.0281 27.8242 26.1447 27.8438 26.2581C27.9565 26.8181 27.8508 27.2199 27.5232 27.4589C27.3172 27.5888 27.0811 27.663 26.8378 27.6743C26.5946 27.6857 26.3526 27.6338 26.1354 27.5237C26.0337 27.4747 25.9171 27.4664 25.8094 27.5005C25.7018 27.5346 25.6113 27.6086 25.5563 27.7073C25.5014 27.806 25.4863 27.9219 25.5141 28.0313C25.5418 28.1408 25.6103 28.2355 25.7056 28.2961Z" fill="#001434"/>
<path d="M21.4867 22.9867C22.2644 23.0991 23.2567 22.649 23.8909 23.0273C24.0991 23.1537 24.4229 23.3276 24.6448 22.8943C25.0777 22.0624 23.4786 21.6532 21.8178 22.0214C21.0265 22.1989 21.0639 22.9251 21.4867 22.9867Z" fill="#001434"/>
<path d="M25.4018 30.2364C26.2303 30.1342 27.1714 30.4751 27.9918 30.7548C28.0917 30.7524 28.1879 30.7164 28.2648 30.6526C28.3417 30.5888 28.3949 30.501 28.4158 30.4033C28.4367 30.3055 28.424 30.2036 28.3799 30.114C28.3357 30.0243 28.2626 29.9522 28.1724 29.9092C27.2929 29.6362 25.1033 28.9953 24.9465 29.7555C24.9339 29.8192 24.9367 29.8849 24.9547 29.9472C24.9727 30.0095 25.0053 30.0665 25.0499 30.1136C25.0945 30.1607 25.1497 30.1964 25.2109 30.2178C25.2722 30.2392 25.3376 30.2456 25.4018 30.2364Z" fill="#001434"/>
<path d="M67.9033 45.4564C66.0448 43.8464 57.4646 44.0991 56.0733 45.0917C55.156 45.8694 53.6859 50.4117 53.2033 53.5592C51.44 53.8697 45.9873 53.1672 45.3283 54.3233C44.7284 55.3803 45.2055 57.3616 46.372 57.3683C48.0909 57.3749 55.01 57.2895 57.1926 57.2318C59.1295 56.9728 65.1376 57.6682 65.7487 56.3655C66.5768 55.0597 68.8514 46.8343 67.9033 45.4564ZM46.3748 56.4852C46.0917 56.4954 45.2663 54.8175 46.8007 54.5952C47.8819 54.4384 51.7319 54.4962 53.0892 54.4521C53.0245 55.0821 53.0007 55.9389 53.1984 56.4096C50.6613 56.4376 46.665 56.4751 46.3748 56.4852ZM66.645 50.7151C65.9153 53.7433 65.4242 55.486 64.7355 55.9021C63.6816 56.5398 61.7255 56.2364 58.6455 56.3284C53.6254 56.4817 53.8949 55.9532 53.9359 55.0156C54.072 52.0623 55.9375 46.3671 56.6469 45.7633C57.6052 44.9517 66.5058 45.078 67.1743 45.9544C67.3545 46.1966 67.3748 47.6834 66.645 50.7151Z" fill="#001434"/>
<path d="M26.1762 35.0893C25.4174 35.1658 24.6517 35.136 23.9012 35.0007C23.7882 34.9787 23.6711 35.0016 23.5747 35.0644C23.4783 35.1273 23.4102 35.2253 23.3849 35.3376C23.3595 35.4499 23.379 35.5676 23.439 35.6658C23.4991 35.764 23.5951 35.8349 23.7066 35.8635C24.5781 36.0706 25.4865 36.0671 26.3564 35.8533C26.6298 35.7644 26.732 35.0585 26.1762 35.0893Z" fill="#001434"/>
<path d="M27.1684 31.4575C25.0607 30.9836 23.0181 29.8958 22.4315 31.0963C20.9822 33.954 25.4632 35.0352 27.5027 34.0835C28.7235 33.5141 29.3031 31.9352 27.1684 31.4575ZM27.4687 32.9786C26.4537 34.1381 22.2439 33.3093 23.141 31.5975C23.2502 31.3875 23.4035 31.2702 23.6254 31.3553C25.003 31.8803 26.3365 32.1123 27.3798 32.4228C27.6084 32.4875 27.6252 32.7976 27.4687 32.9786Z" fill="#001434"/>
<path d="M2.95907 67.7251C4.14242 68.2774 19.9519 68.0457 20.9991 68.1171C21.3026 68.1409 21.2378 67.0087 20.9582 67.0122C14.6862 67.0916 10.1887 64.4344 6.69322 64.4344C5.67822 64.4344 4.27822 65.3707 3.18062 66.0168C2.50442 66.4151 2.14042 67.3436 2.95907 67.7251Z" fill="#001434"/>
</svg>
