<svg width="81" height="80" viewBox="0 0 81 80" fill="none" xmlns="http://www.w3.org/2000/svg">
<path d="M29.3042 61.3961C22.4442 62.0589 18.157 62.9561 13.129 55.9005C12.5442 58.0441 12.739 60.9673 12.5834 62.6045C12.5434 65.6445 9.77699 69.6201 12.1934 69.4641C14.3762 68.3341 13.9862 69.8541 16.1302 70.3609C17.2994 70.4777 18.4686 69.2693 19.7938 69.3085C21.0802 69.3485 22.8338 70.8285 23.8474 70.9845C24.861 71.1405 26.2638 69.9709 27.2382 69.8541C28.2126 69.7373 29.187 71.1013 30.4734 71.1013C31.565 71.1013 32.3014 69.9913 33.3578 69.7761C34.4066 69.5625 35.2678 70.3217 36.125 70.4777C40.2566 70.3217 36.7098 64.1633 36.0082 61.5129C33.2798 62.8773 29.3042 61.3961 29.3042 61.3961Z" fill="#FF9F1C"/>
<path d="M16.2475 55.7443C21.5095 48.1843 23.3803 50.4043 27.8623 49.8199C28.9539 48.1439 30.3959 47.0523 31.7211 49.4299C33.9039 47.4031 35.3459 49.4299 35.3459 49.4299C35.3459 49.4299 35.0343 49.5471 37.4119 48.6895C36.5155 45.4543 34.2159 43.1547 32.8919 42.9211C31.9563 43.6615 31.7223 43.7395 30.2023 44.4011C28.2143 48.6883 25.4083 48.8443 22.2899 45.3363C20.8479 45.4531 19.1331 44.8687 17.9247 44.5959C16.7555 44.3231 13.7543 46.3887 13.1695 48.0647C12.3495 50.5199 14.6475 54.8479 16.2475 55.7443Z" fill="#FF9F1C"/>
<path d="M6.93187 42.6484C4.63227 42.6484 3.65747 42.9212 3.65747 44.48C3.65747 45.2208 3.69747 73.0888 3.81347 75.5836C3.85347 76.09 4.47627 75.4664 4.47627 74.96C4.47627 69.3756 4.13707 48.1432 4.47627 44.4024C4.55387 43.4276 4.94267 43.3496 7.08747 43.3108C7.51627 43.3032 7.43827 42.6484 6.93187 42.6484Z" fill="#FF9F1C"/>
<path d="M36.0073 74.7261C34.6429 74.0633 30.4725 76.0121 29.3033 76.0513C28.1341 76.0905 27.3545 75.9733 26.1461 76.0913C24.7041 72.9733 20.2661 75.8169 18.0389 76.0133C16.4041 76.1577 10.9065 75.4289 10.7893 75.4289C10.7493 75.7797 10.5165 77.5725 11.6081 77.3777C11.6857 77.4177 37.8001 77.5337 37.8001 77.5337C37.9177 76.1293 38.0737 76.0121 36.0073 74.7261Z" fill="#FF9F1C"/>
<path d="M76.8163 25.031C76.8563 13.689 76.7363 5.27103 76.7363 4.41223C76.6963 1.95703 75.4499 2.03503 72.6439 2.03503C68.9411 2.03503 60.2103 1.95703 58.8839 2.03503C56.6623 2.15183 56.3895 3.20423 56.3115 4.49023C56.2335 5.62063 56.1947 13.1042 56.2335 16.573C56.2335 17.041 56.9739 16.963 56.9739 16.729C56.9739 15.053 56.9739 12.5586 57.0139 10.025C57.1307 3.90503 56.7407 2.81423 58.9235 2.81423H72.6435C74.9039 2.81423 75.8783 2.69743 75.9563 4.41223C75.9963 5.30903 75.9563 16.3782 76.0735 24.953C76.2683 40.8942 75.9935 42.0638 76.5411 41.673C77.0111 41.2842 76.7383 41.3622 76.8163 25.031Z" fill="#FF9F1C"/>
<path d="M59.1994 62.5653C58.8486 62.3313 58.6926 62.7993 58.4194 62.8773C57.3282 63.1889 57.0166 60.1877 56.081 61.7081C55.8474 61.1621 55.6522 60.7337 55.1454 60.9673C54.7558 61.1621 54.8726 62.0589 54.7558 62.5673C53.9374 61.8269 54.171 59.2545 53.2358 58.9813C52.2614 58.9413 52.8458 61.2809 52.3394 61.7489C51.9106 62.0997 51.495 61.7125 51.599 61.1253C51.6127 61.0228 51.5855 60.9189 51.5233 60.8362C51.4611 60.7535 51.3688 60.6985 51.2665 60.6832C51.1641 60.6679 51.0599 60.6934 50.9761 60.7543C50.8924 60.8151 50.836 60.9064 50.819 61.0085C50.4294 63.1521 53.3918 63.1521 53.3138 61.0885C53.3918 62.2577 55.0678 64.9469 55.5354 62.4525C55.7302 63.0761 56.549 63.3101 56.7046 62.6085C56.8636 62.9494 57.1266 63.2311 57.4558 63.4132C57.7849 63.5952 58.1634 63.6683 58.5366 63.6217C59.0042 63.5785 59.7058 62.9553 59.1994 62.5653Z" fill="#FF9F1C"/>
<path d="M47.1165 7.53038C45.6741 7.33558 32.7341 7.41318 31.1357 7.53038C29.4989 7.64718 28.9145 8.15398 28.9145 9.75198C28.9145 9.90798 28.8345 11.506 28.8345 13.104C28.8345 16.2608 28.8345 16.9628 29.0685 17.0016C29.4581 17.0816 29.5361 16.8848 29.5361 16.6508C29.5361 13.7668 29.5761 11.2332 29.5761 9.90798C29.5761 8.62158 30.1605 8.34798 31.2133 8.27078C32.5773 8.19318 45.5173 8.07598 46.9597 8.27078C47.8949 8.42678 48.4397 8.93358 48.5197 9.79078C48.5997 10.6092 48.5597 13.2984 48.5597 14C48.5597 14.3116 49.3461 14.4676 49.3393 14.08C49.3197 12.9884 49.2993 10.6888 49.2613 9.83158C49.2989 8.66078 48.9093 7.76398 47.1165 7.53038Z" fill="#FF9F1C"/>
<path d="M57.562 33.6445C62.8628 33.5669 62.434 26.2001 57.172 26.9017C53.0408 27.4865 53.5084 33.6837 57.562 33.6445ZM60.2512 29.3573C60.3722 29.6454 60.4327 29.9553 60.4289 30.2677C60.4251 30.5801 60.3572 30.8884 60.2293 31.1735C60.1014 31.4585 59.9162 31.7143 59.6854 31.9248C59.4545 32.1353 59.1828 32.2962 58.8872 32.3973C58.381 30.8859 57.861 29.3792 57.3272 27.8773C58.8092 27.4473 59.8228 28.3441 60.2512 29.3573Z" fill="#001434"/>
<path d="M52.0664 35.4769C52.8848 35.9833 54.4436 35.4369 55.0284 35.0477C55.418 34.7753 55.1844 34.1125 54.6388 34.3853C54.0932 34.6581 53.0016 35.0089 52.456 34.5801C51.7156 33.9953 52.144 31.4229 52.222 30.6437C52.3 29.8645 51.542 30.2105 51.3648 30.9553C50.7568 33.5141 50.936 34.7753 52.0664 35.4769Z" fill="#001434"/>
<path d="M74.6729 41.0114C73.6985 39.8422 70.8141 38.1662 68.1249 37.5034C69.4501 34.8142 70.6581 31.2282 68.7093 29.0066C69.9565 19.5354 61.3037 17.2358 55.9253 18.0934C54.3653 18.327 53.9877 17.2718 53.8593 16.807C53.4993 15.5114 52.5729 15.247 50.4293 15.287C47.8569 15.327 44.6997 16.5342 42.8693 18.171C39.2837 21.4062 38.8549 25.9666 41.8173 29.7082C41.6221 34.4634 42.3237 37.1138 43.9609 40.3882C42.0901 42.103 41.3105 46.7026 39.1669 47.443C38.5605 45.6385 37.4184 44.0617 35.8929 42.923C39.3617 42.963 41.1157 38.4794 38.8929 36.0242C41.5041 33.1006 40.5297 27.527 37.0997 25.8902C39.5937 18.9506 30.0073 14.8582 25.7181 19.5354C22.5981 15.8326 14.5709 17.4694 13.2845 21.991C9.23132 20.7438 4.63212 25.109 6.11292 29.2402C1.90332 32.2022 3.11292 39.4522 8.37372 40.6602C7.86692 43.9342 9.27012 45.7274 11.7645 46.6238C9.97172 48.8454 10.2445 51.7294 11.5697 54.2238C10.0897 56.4846 10.4785 60.655 10.0897 63.3438C9.58332 66.9686 6.42612 70.4374 10.8693 70.5546C10.5185 72.7761 9.89492 76.9078 10.7525 77.5314C11.8233 78.3346 35.8605 77.8665 37.3345 77.8429C39.0885 77.8029 39.4001 74.569 36.2821 73.203C36.3477 72.4552 36.4649 71.7129 36.6329 70.9814C37.5685 70.9014 37.9969 70.1626 38.6985 70.2798C40.0629 70.5134 40.7253 70.1626 39.9849 67.1598C39.4735 65.2817 38.8219 63.4447 38.0357 61.6642C38.182 61.5825 38.3138 61.4772 38.4257 61.3526C39.7901 61.4306 41.6609 61.3526 42.9081 60.8458C43.8825 61.8978 44.1941 61.5862 46.2989 62.4826C46.1821 63.457 45.8489 66.1086 45.7925 66.965C45.7329 67.863 46.3769 71.837 46.3381 72.8114C45.4025 73.9417 43.0249 75.6957 44.3113 77.1377C45.0909 78.0341 45.8313 77.8006 49.0273 77.8006C55.8093 77.8406 67.8529 77.9562 73.8165 77.8786C76.0773 77.4497 75.3365 75.6565 74.8297 73.6301C74.4013 71.9542 73.8165 69.6546 73.7385 68.6022C73.6605 67.355 73.5437 64.4706 73.5825 62.7946C76.0773 62.7946 74.7129 61.0018 74.5961 57.0258C76.6617 55.233 77.7921 53.7518 78.0649 52.6218C78.8433 48.8846 76.1149 42.7266 74.6729 41.0114ZM42.0105 28.383C37.5673 21.6802 45.8301 15.3258 52.2613 16.4562C53.6257 16.6902 52.7677 19.6522 56.0421 19.0678C58.3805 18.639 66.7221 19.1454 67.5401 24.953C64.5001 19.4186 59.6669 19.6914 54.5609 20.6266C50.8189 21.2114 51.7545 17.6646 49.7669 17.7426C45.2069 17.9762 40.6869 21.6402 42.3221 27.3694C42.1952 27.6997 42.0911 28.0384 42.0105 28.383ZM43.3745 36.2562C42.4393 32.8266 42.2053 28.383 44.0373 26.3174C45.9081 24.1734 48.2077 26.2002 50.6241 25.9666C54.2881 25.6158 55.7689 23.6278 59.2769 23.9786C63.9169 24.4462 62.1225 31.9298 65.9029 29.9422C66.7997 29.4742 67.5029 29.2014 67.8909 29.6302C69.8009 31.6958 67.9309 36.4902 66.0201 38.8678C63.6813 41.7522 59.3941 42.8434 56.4317 43.1162C48.9093 43.8178 45.5181 44.1686 43.3745 36.2562ZM61.7345 60.6162C61.5785 60.3434 61.2669 60.3822 59.9029 61.201C59.2981 60.4897 58.7873 59.7037 58.3829 58.8622C59.6301 58.0826 60.1865 57.959 59.8253 57.4202C59.5601 57.025 59.0065 57.5002 57.9933 57.9658C57.4085 56.4858 57.4477 54.809 58.7337 53.8734C59.8253 53.1718 58.5001 51.8466 59.7081 51.301C63.8785 50.1706 66.6461 57.2254 68.0493 60.6942C64.6581 62.877 62.9041 64.2022 60.6045 61.9414C61.4989 61.2402 62.0053 61.1622 61.7325 60.6166L61.7345 60.6162ZM59.6689 47.793C59.4349 47.403 57.7197 46.313 58.0317 45.7274L58.4605 44.597C59.0061 45.1426 59.7077 45.8442 60.1757 46.2338C60.0177 46.741 59.8617 47.2866 59.6669 47.7934L59.6689 47.793ZM58.8873 43.6618C59.5869 43.5082 60.2766 43.313 60.9529 43.0774C60.8361 43.6618 60.6801 44.4026 60.4465 45.1818C59.9785 44.753 59.3549 44.1686 58.8873 43.6618ZM54.9117 45.3378C55.1845 45.5718 56.5489 45.9226 56.3917 46.4682L55.8069 49.4682C55.1833 48.8446 54.5597 48.143 53.9361 47.4414C54.2493 46.819 54.6001 46.0402 54.9117 45.3378ZM53.2745 46.663C52.6008 45.9112 51.9759 45.117 51.4037 44.2854C52.3911 44.3304 53.3803 44.317 54.3661 44.2454C54.0541 44.909 53.6257 45.8834 53.2745 46.663ZM9.81572 44.0518C9.11412 43.0774 9.10612 40.7162 9.93292 39.1406C10.0529 38.909 9.38692 38.4002 8.64652 39.7254C3.34572 38.517 3.07292 30.2538 8.64732 29.2802C8.71142 29.2779 8.77444 29.263 8.83274 29.2363C8.89104 29.2096 8.94345 29.1715 8.98694 29.1244C9.03044 29.0773 9.06414 29.022 9.08611 28.9617C9.10808 28.9014 9.11787 28.8374 9.11492 28.7734C9.06492 28.3458 7.75092 28.4618 7.01052 28.7734C5.80212 25.0318 10.4793 21.5238 13.8313 23.2778C15.2733 24.0186 15.1953 23.1218 14.1821 22.3426C15.7021 18.055 21.9773 17.3146 25.2121 20.2378C25.3452 20.3555 25.5147 20.4237 25.6922 20.431C25.8697 20.4383 26.0443 20.3842 26.1865 20.2778C29.1813 17.805 32.3065 18.0174 34.3717 19.7322C35.269 20.3589 35.9372 21.2614 36.2749 22.3025C36.6127 23.3436 36.6014 24.4664 36.2429 25.5006C36.1621 25.7322 36.1603 25.9841 36.2378 26.2168C36.3153 26.4496 36.4678 26.6501 36.6713 26.787C37.7629 27.5274 38.8153 28.463 39.1661 30.139C40.3353 33.8418 37.1393 35.5178 37.8797 36.4142C39.8285 38.8306 38.2693 42.6114 34.9953 41.9098C37.4901 39.4934 37.4901 34.8162 35.5021 33.2182C35.2961 32.9474 35.1741 32.6221 35.1513 32.2826C34.6837 29.4374 34.2937 25.8906 31.6045 25.7734C29.9677 25.6958 29.2661 26.709 27.7457 26.5142C25.0565 26.2022 23.7313 24.0198 21.2365 26.6702C20.817 27.1072 20.3057 27.4457 19.7396 27.6614C19.1734 27.8771 18.5665 27.9645 17.9625 27.9174C13.4425 27.6054 17.4561 32.6334 15.7021 34.3482C14.9225 35.1282 13.7533 34.2706 12.6221 35.6738C10.5953 38.1294 13.0897 42.6506 15.7793 44.0146C14.5428 44.2743 13.4066 44.883 12.5053 45.7686C11.6873 45.7278 10.6345 45.143 9.81572 44.0518ZM26.0301 44.753C23.8473 45.0262 16.5197 45.4546 13.6745 40.5826C12.7781 39.0626 12.3881 37.5826 13.4405 36.295C14.3369 35.2038 15.5453 36.1006 16.5205 35.009C18.3913 32.8266 14.7277 28.617 18.0405 28.929C21.8993 29.2798 22.2501 24.7974 25.6005 26.8242C26.491 27.3153 27.516 27.5066 28.5237 27.3698C31.0961 27.0582 32.6941 24.7198 33.7853 30.0982C32.0705 29.3578 28.4457 30.2934 29.1085 33.4502C29.2645 34.191 29.6153 35.1266 30.2385 35.399C31.7585 36.0618 34.3701 35.555 35.0717 34.113C37.7621 38.5946 34.8389 43.6618 26.0301 44.753ZM29.4989 45.065C28.0589 48.0274 25.8741 48.105 23.5353 45.8446C25.5498 45.8632 27.557 45.6008 29.4989 45.065ZM32.3053 34.6582C31.0189 34.7382 30.3565 34.8922 30.0445 33.2942C29.7329 31.7342 30.7461 30.9554 31.9933 30.8778C31.9825 32.1447 32.0869 33.4101 32.3053 34.6582ZM11.4525 50.327C11.4525 47.327 14.1589 44.311 17.8061 45.0262C19.2165 45.3026 20.6901 45.7278 22.0153 45.8054C25.2113 49.2746 28.4853 49.3526 30.8241 44.6362C31.9561 44.2078 33.0196 43.6169 33.9813 42.8822C35.6181 43.8566 37.3721 45.221 38.2297 47.8322C37.4113 48.1442 36.4365 48.495 35.4625 48.8066C34.6049 47.7934 32.6173 47.9102 31.8373 48.651C30.9021 47.051 28.7353 47.585 27.9397 48.9626C27.7397 49.3102 27.5501 49.5082 27.3553 49.5082C26.9265 49.5482 24.8217 49.5482 23.9253 49.5482C22.0933 47.6382 21.8985 47.2874 21.6257 47.5602C21.2749 47.9502 21.5089 48.2618 22.6389 49.6262C19.8717 50.4054 15.8961 53.7966 15.0389 57.4994C13.0509 55.3546 11.4525 52.7434 11.4525 50.327ZM34.6829 53.1722C35.1505 53.6398 35.8133 53.1722 37.2165 52.6654C37.4849 53.2876 37.6684 53.943 37.7621 54.6142C37.4501 54.731 36.9825 54.887 36.7097 54.965C36.1641 55.0818 36.3197 55.9394 37.8009 55.6666C37.7607 56.0381 37.6824 56.4046 37.5673 56.7602C34.4473 53.6402 27.6673 56.9938 29.1093 61.0474C25.4453 61.4374 18.6633 61.9046 15.9349 58.319C16.4029 54.6162 21.4309 50.6018 23.5349 50.4458C25.5229 50.329 27.0033 50.397 27.5497 50.3678C28.6401 50.3094 28.6021 48.7306 29.7713 48.497C30.3173 48.3798 30.8237 48.497 31.2137 49.3934C29.4593 52.7842 34.3705 53.369 35.5789 50.6798C36.0605 50.9653 36.4626 51.3673 36.7481 51.849C35.3453 52.4314 34.3321 52.8214 34.6829 53.1722ZM32.6173 58.9794C32.9677 59.1358 33.2017 59.0194 33.2797 58.7458C33.5137 57.8106 33.6693 56.9138 33.7473 56.485C34.489 56.4266 35.2345 56.5331 35.9301 56.797C35.8521 57.3814 35.6961 57.8882 35.5793 58.5118C35.4993 58.9406 36.0469 59.2914 36.2809 58.9406C36.5739 58.4663 36.76 57.934 36.8265 57.3806C39.0093 59.7194 38.1909 61.629 34.2541 61.5122C30.9801 61.3174 28.8361 61.2782 30.2785 58.667C30.8612 57.7814 31.7061 57.1001 32.6949 56.7182C32.5781 57.5766 32.2665 58.8238 32.6173 58.9794ZM31.7985 50.0538C31.9649 49.7248 32.2224 49.4506 32.5404 49.264C32.8584 49.0775 33.2234 48.9864 33.5917 49.0018C34.8777 49.0418 35.2285 50.093 34.1369 50.9894C32.8901 52.0402 31.2529 51.2234 31.7985 50.0538ZM25.8741 76.4801C25.8326 76.6279 25.7468 76.7594 25.6283 76.857C25.5098 76.9545 25.3643 77.0134 25.2113 77.0257C18.6633 77.0658 13.0853 77.0214 11.4913 76.7918C11.3878 76.7805 11.2906 76.7367 11.2136 76.6667C11.1365 76.5967 11.0836 76.5041 11.0625 76.4022C11.0258 76.1964 11.0124 75.9873 11.0225 75.7785C11.2953 76.2462 15.3097 76.1681 17.3757 76.2854C18.8157 76.3629 20.1429 74.1413 22.7545 74.1026C24.4321 73.9077 26.0689 75.0378 25.8741 76.4801ZM23.6525 73.089C20.7681 72.6213 18.0789 75.2838 17.3381 75.2718C13.7897 75.2134 12.1461 75.3237 11.6477 74.9989C11.0133 74.5861 11.1409 73.3618 11.7645 70.1658C13.2445 68.9578 14.5325 70.7494 16.0909 70.7894C17.6109 70.8294 18.6245 69.5814 20.0277 69.6202C21.4697 69.737 22.4441 71.1402 23.8473 71.3354C23.6845 71.9048 23.6186 72.4976 23.6525 73.089ZM24.8217 73.323C24.2761 72.8162 24.3929 71.5302 24.8617 71.2182C27.7073 69.3862 28.1749 71.4521 30.3189 71.3741C32.6961 71.2962 32.9301 68.8405 35.6193 70.8286C35.4362 71.5571 35.319 72.3006 35.2689 73.0502C31.1369 72.6994 30.6689 75.9346 26.6549 75.233C26.2857 74.4017 25.6371 73.726 24.8217 73.323ZM36.5149 74.3362C36.9094 74.5221 37.239 74.8221 37.4613 75.1973C37.6837 75.5724 37.7884 76.0056 37.7621 76.441C37.7518 76.5683 37.6939 76.6871 37.6 76.7738C37.5062 76.8605 37.3831 76.9088 37.2553 76.909C33.7861 76.949 30.1225 76.949 26.7705 76.9866C26.8473 76.7472 26.8867 76.4975 26.8873 76.2462C29.9673 76.7918 31.2141 74.9209 33.1237 74.2585C33.9813 73.9857 35.2677 73.6349 36.5149 74.3362ZM39.2041 68.9202C39.3209 69.5438 39.0465 69.5086 38.8533 69.427C37.7925 68.9786 36.8265 70.0118 36.3197 70.0118C35.7741 70.0118 34.2929 68.1798 31.9157 69.8166C29.2653 71.6098 28.2125 68.1018 25.4453 69.9338C25.0633 70.19 24.6187 70.3374 24.1593 70.3601C22.7561 70.2822 21.6257 68.8802 20.0277 68.8402C18.5077 68.6846 17.5333 69.9706 16.0909 69.8145C14.6877 69.659 14.1033 68.8794 13.0509 68.7234C12.5053 68.6454 11.8425 68.8013 10.5565 69.5809C9.23132 69.3857 9.30932 68.6846 9.81572 67.3982C10.3332 66.1408 10.7249 64.8352 10.9849 63.5006C11.4917 61.045 10.9849 57.4206 12.0765 55.1986C16.5965 62.721 22.6389 62.8786 30.0837 61.8246C32.3325 62.6044 34.7645 62.686 37.0605 62.0586C38.8533 66.4242 39.1273 68.217 39.2041 68.9202ZM42.8289 59.293C42.7568 59.4661 42.7172 59.6511 42.7121 59.8386C41.4917 60.2866 40.1875 60.4596 38.8925 60.3454C39.0691 59.3518 38.8447 58.3287 38.2685 57.5002C39.5161 55.0446 38.2685 50.835 35.8913 49.6658C42.6341 47.717 40.8413 46.8206 44.5049 41.2078C45.1672 42.1728 46.0666 42.9513 47.1165 43.4686C46.5317 48.1458 47.5841 46.5886 50.5853 47.405C50.7021 47.795 49.8837 49.1982 50.6633 49.471C50.7247 49.4919 50.79 49.4991 50.8545 49.4922C50.919 49.4854 50.9813 49.4645 51.0369 49.4311C51.0925 49.3977 51.1402 49.3526 51.1766 49.2989C51.213 49.2452 51.2373 49.1842 51.2477 49.1202C51.7933 47.0542 51.4429 46.7814 51.2877 46.6646C51.1317 46.3918 48.5201 46.197 47.9745 46.0022C47.9109 45.287 47.9378 44.5666 48.0545 43.8582C48.7511 44.0664 49.4715 44.1843 50.1981 44.209C51.9525 46.8986 55.4601 50.4842 57.2921 52.3162C44.4661 48.339 46.9993 45.8834 42.8289 59.2914V59.293ZM44.2709 60.6574C43.6085 60.3846 43.5305 60.2674 43.7645 59.5658C44.2321 58.0458 44.9337 55.3954 45.4793 53.8754C46.1809 51.8874 46.7657 50.3286 47.1165 50.0946C47.5841 49.5878 56.2765 53.2126 57.7565 53.4074C54.6365 56.7598 59.0817 63.1518 62.5117 64.0074C62.1221 65.3326 61.8881 65.995 61.2645 66.0342C59.3941 66.1902 44.2321 60.7726 44.2709 60.6558V60.6574ZM48.9873 76.7934C43.8425 76.9494 43.8425 76.4037 47.0385 73.4413C49.2601 73.6754 54.5609 74.3769 57.2505 75.6241C57.1677 76.042 57.2516 76.4757 57.4841 76.8325C54.1321 76.8309 51.0141 76.7918 48.9873 76.7918V76.7934ZM74.2049 76.7134C73.1137 77.1814 66.9165 76.7934 59.7057 76.8694C56.9773 76.7526 58.6925 75.0765 59.4329 73.8293C61.6937 73.8293 71.3597 74.9598 74.3221 76.285C74.3252 76.4362 74.2845 76.5851 74.2049 76.7137V76.7134ZM73.8541 73.8681C73.9805 74.3334 74.0881 74.8038 74.1661 75.1546C70.5801 73.8682 61.8497 72.8549 59.4721 72.8158C59.3161 72.0362 58.4977 69.4249 58.4193 68.9182C58.3409 68.4114 58.2637 68.0998 58.2249 67.5929C58.1861 67.0862 57.4453 67.1642 57.4841 67.7878C57.4441 69.2677 58.3025 71.8414 58.5365 73.3226C58.4193 73.7122 57.8741 74.2969 57.6013 74.7257C54.8337 73.4785 49.6109 72.7378 47.2333 72.465C47.2333 71.6854 46.6673 67.7878 46.6877 66.9694C46.7069 66.189 46.9993 63.8894 47.1553 62.799C54.4049 65.0598 58.7701 66.6966 61.0309 66.8134C62.5109 66.8934 62.9797 65.4882 63.4477 64.0462C64.5947 63.7953 65.6893 63.3469 66.6825 62.721C69.3329 62.761 71.5545 62.799 72.5681 62.799C72.5673 67.009 72.7273 69.7142 73.8541 73.8686V73.8681ZM73.9713 61.6282C73.7373 61.8234 72.2561 61.8234 68.2025 61.7454C69.9565 60.5762 72.1781 58.9778 73.6205 57.7698C73.6985 58.8238 74.2049 61.4354 73.9713 61.6298V61.6282ZM77.0893 52.3518C76.8553 53.7162 73.0749 57.263 68.9041 60.1086C68.0469 57.497 65.6301 52.9758 63.4477 51.1438C64.4412 50.4383 65.356 49.6281 66.1761 48.727C66.6045 48.2594 66.3317 47.675 65.5913 48.2594C64.8509 48.8438 62.5913 50.5202 62.5913 50.5202C62.5913 50.5202 61.6949 49.8966 59.9021 50.2474C60.7593 47.9086 61.8117 44.4786 62.0457 42.725C63.6517 42.1081 65.1212 41.1824 66.3709 40.0002C67.0725 40.9354 67.4233 41.4402 67.3061 41.715C67.0333 42.3386 64.0713 43.275 63.9153 44.2486C63.7593 45.2222 65.8641 47.2106 66.4489 46.743C66.6825 46.587 66.6045 46.3534 66.4089 46.1582C65.7073 45.5346 64.8889 44.7942 64.9289 44.3266C65.0069 43.8586 68.0489 42.9234 68.3201 41.9878C68.5149 41.3642 68.1641 40.5078 67.0337 39.2206C67.2635 38.9376 67.472 38.638 67.6573 38.3242C70.1517 38.9086 73.0753 40.5066 73.9717 41.5982C75.1793 43.155 77.5961 49.0402 77.0893 52.3534V52.3518Z" fill="#001434"/>
<path d="M47.6228 35.1261C51.9984 33.8169 50.7028 27.6813 46.0628 28.5777C41.5036 29.3201 43.2656 36.4297 47.6228 35.1261ZM47.8568 34.0345C47.3892 32.5145 46.8044 30.7213 46.4148 29.5145C47.0002 29.3703 47.6186 29.4538 48.1447 29.7483C48.6708 30.0427 49.0654 30.526 49.2487 31.1004C49.4319 31.6748 49.3901 32.2974 49.1317 32.8421C48.8733 33.3868 48.4176 33.8131 47.8568 34.0345Z" fill="#001434"/>
<path d="M49.611 37.3084C49.0654 38.01 48.1102 37.8156 48.091 36.9188C48.0782 36.334 47.571 36.2896 47.3502 36.7628C46.7338 38.0736 48.3638 39.4524 49.767 38.4776C50.819 40.0776 53.6258 40.2708 54.407 38.088C55.967 39.4912 58.3438 38.4 58.6946 36.6456C59.0175 36.7682 59.3717 36.7812 59.7027 36.6827C60.0338 36.5842 60.3232 36.3796 60.5266 36.1004C61.1786 35.0256 60.517 33.5176 59.9418 34.0736C59.7038 34.3032 60.1818 35.2536 59.6298 35.5936C58.975 35.9964 58.4146 35.1536 57.915 35.5156C57.8372 35.5724 57.7775 35.6504 57.7429 35.7403C57.7083 35.8301 57.7003 35.9281 57.7198 36.0224C57.8762 36.724 57.3302 37.4256 56.6286 37.6592C54.7966 38.2828 54.7578 36.2192 54.0174 36.4512C53.3158 36.6848 54.0574 38.7508 52.1074 38.7508C51.7449 38.758 51.3898 38.6481 51.0949 38.4373C50.7999 38.2266 50.5808 37.9264 50.4702 37.5812C50.3906 36.88 50.001 36.802 49.611 37.3084Z" fill="#001434"/>
<path d="M44.5437 28.149C45.0117 28.229 45.8329 27.7822 47.1165 27.6034C47.8589 27.4998 47.5841 26.473 46.9213 26.551C44.1153 26.9018 44.0373 28.071 44.5437 28.149Z" fill="#001434"/>
<path d="M55.9273 26.3172C57.5641 26.044 59.2873 26.3172 59.3961 25.9276C59.6461 25.0352 57.5253 24.68 55.8101 25.0696C55.0285 25.2256 55.3793 26.3948 55.9273 26.3172Z" fill="#001434"/>
<path d="M48.7925 55.4718C50.3525 56.563 51.7925 53.133 50.1953 52.5874C48.8701 52.1202 47.6229 54.6142 48.7925 55.4718ZM49.2601 53.8718C50.1565 52.2718 50.3513 54.4566 49.5329 54.8462C49.1041 55.0802 48.9873 54.3414 49.2601 53.8738V53.8718Z" fill="#001434"/>
<path d="M27.5501 42.5704C27.1746 42.7999 26.743 42.9213 26.3029 42.9213C25.8628 42.9213 25.4312 42.7999 25.0557 42.5704C24.7829 42.3756 24.4017 42.72 24.7049 43.1548C24.905 43.3805 25.1517 43.5601 25.4279 43.6812C25.7041 43.8024 26.0033 43.8621 26.3049 43.8564C27.4353 43.8964 28.2145 43.116 28.0977 42.6872C27.9789 42.4532 27.7841 42.4532 27.5501 42.5704Z" fill="#001434"/>
<path d="M29.343 38.44C28.8754 38.1672 27.7062 38.9464 27.589 38.284C27.4722 37.6996 26.8874 37.6604 26.6146 38.206C26.0302 39.4536 23.4578 36.9976 22.8342 38.6348C22.0934 40.5836 24.5874 41.7992 26.459 41.792C29.4994 41.7784 30.1614 38.9844 29.343 38.44ZM26.6926 40.8176C25.1726 40.9224 23.3798 40.0772 23.5726 39.2196C23.5817 39.178 23.5992 39.1388 23.6241 39.1042C23.6489 39.0697 23.6805 39.0406 23.717 39.0187C23.7534 38.9968 23.794 38.9825 23.8362 38.9768C23.8783 38.9712 23.9212 38.9741 23.9622 38.9856C24.781 39.2584 26.223 39.804 27.0022 39.2196C27.3918 39.6872 28.1674 39.5232 28.6002 39.2972C28.6774 39.2572 28.717 39.2972 28.7562 39.3772C28.7586 40.3488 27.5902 40.7544 26.6926 40.8164V40.8176Z" fill="#001434"/>
<path d="M25.2505 33.9565C25.2505 30.6045 22.6781 30.3705 19.6769 31.1501C17.1433 31.8129 17.4161 35.2429 18.3905 36.3733C19.5989 37.7373 23.1845 36.9965 24.1981 36.4133C24.8997 36.0225 25.2505 35.1649 25.2505 33.9565ZM21.4309 36.1781C19.0921 36.5289 17.8449 35.0869 18.9361 32.7873C19.2869 32.0465 20.9629 31.8129 21.8205 31.7349C21.561 33.2017 21.4306 34.6885 21.4309 36.1781Z" fill="#001434"/>
<path d="M54.6001 57.3031C56.2761 57.6931 57.0165 54.5752 55.3793 54.1464C53.6257 53.68 52.9237 56.9135 54.6001 57.3031ZM54.7169 55.0036C55.8081 54.1852 55.5801 56.7788 54.7569 56.5236C54.2137 56.356 54.3673 55.2768 54.7169 55.0036Z" fill="#001434"/>
<path d="M51.5988 56.368C53.2356 57.1476 54.4048 53.8344 52.612 53.328C51.2472 52.9772 50.2732 55.7444 51.5988 56.368ZM51.8712 54.614C52.1052 54.0292 52.612 53.9124 52.7288 54.4584C52.8068 54.8868 52.4172 55.8612 51.9496 55.6664C51.6764 55.5884 51.7156 55.0428 51.8712 54.614Z" fill="#001434"/>
<path d="M20.8472 30.0198C21.12 30.0978 23.4588 29.5914 23.8472 29.5914C24.432 29.5914 24.6268 28.3734 24.042 28.383C22.9178 28.4213 21.8148 28.6999 20.8072 29.2002C20.3784 29.5134 20.4564 29.9422 20.8472 30.0198Z" fill="#001434"/>
<path d="M46.9212 53.0548C47.0794 53.0254 47.2357 52.9864 47.3892 52.938C47.2332 53.5616 46.2128 54.4304 46.8824 54.848C46.9268 54.8772 46.9775 54.8954 47.0303 54.901C47.083 54.9067 47.1364 54.8997 47.186 54.8806C47.2355 54.8615 47.2798 54.8309 47.3152 54.7913C47.3505 54.7517 47.3759 54.7042 47.3892 54.6528C47.7008 53.8736 48.9492 52.6652 48.3636 51.9248C47.9736 51.4568 47.428 52.2756 46.8436 52.3144C46.3368 52.3532 46.4148 53.172 46.9212 53.0548Z" fill="#001434"/>
<path d="M50.5462 59.8369C45.1286 58.0441 44.8558 57.5373 44.817 58.3569C44.777 58.9029 48.5106 60.0649 49.9618 60.4621C50.5818 60.6301 51.0142 60.0317 50.5462 59.8369Z" fill="#001434"/>
<path d="M26.264 35.2035C26.966 35.6715 27.3556 33.4887 28.2128 35.0087C28.3688 35.2427 28.4468 35.3595 28.6808 35.2427C29.2656 34.9695 28.6008 33.4887 27.5112 33.5667C26.654 33.5667 25.6016 34.7751 26.264 35.2035Z" fill="#001434"/>
<path d="M29.6938 29.0064C30.6226 29.0142 31.5489 29.1055 32.4614 29.2792C32.851 29.396 32.9678 29.3592 33.0458 29.0844C33.2798 28.032 30.0838 27.8372 29.4598 27.9152C28.8358 27.9932 28.9926 29.0452 29.6938 29.0064Z" fill="#001434"/>
<path d="M56.1982 58.7847C54.8338 58.1219 53.6646 57.8103 51.2478 56.9915C48.8314 56.2119 45.9186 54.9687 45.7134 55.5115C45.6808 55.6097 45.6868 55.7168 45.7301 55.8108C45.7735 55.9048 45.851 55.9788 45.947 56.0178C48.4418 56.9922 55.3014 59.1751 55.9642 59.3699C56.627 59.5647 56.549 58.9403 56.1982 58.7847Z" fill="#001434"/>
<path d="M25.0556 37.269C25.4668 37.9814 26.2636 36.2558 28.1736 37.503C28.6804 37.893 29.1092 37.2302 28.2904 36.6454C26.7316 35.4766 24.8112 36.8462 25.0556 37.269Z" fill="#001434"/>
</svg>
