<svg width="71" height="70" viewBox="0 0 71 70" fill="none" xmlns="http://www.w3.org/2000/svg">
<path d="M50.8649 23.0195C50.0494 25.403 43.8649 27.041 43.6409 28.336C43.8474 32.494 47.2879 34.741 45.6534 39.207C44.8344 41.5555 41.0194 42.1715 39.8574 40.0925C37.5754 45.066 36.0774 44.6915 32.7034 44.1805C32.7034 45.304 32.5319 52.087 36.6199 52.2305C38.7199 52.64 37.8134 49.539 38.5624 48.6185C39.8574 45.927 42.9934 42.6685 51.5474 45.0065C51.5474 45.0065 45.2474 44.0195 41.7474 47.5265C39.2239 50.05 40.0429 53.2175 41.1664 53.7635C43.3819 54.7855 47.7149 55.356 50.5744 55.195C64.8369 54.397 66.8634 52.367 65.6244 34.8495C65.0644 24.619 61.5994 21.2135 50.8649 23.0195Z" fill="#FF9F1C"/>
<path d="M50.6267 44.4537C45.1737 42.9557 38.1877 44.4887 37.2672 50.2147C37.0642 51.4747 37.9672 51.6427 38.0197 51.0652C38.4852 45.0907 45.9927 43.7152 51.2742 45.4092C51.7852 45.5772 51.8902 44.8037 50.6267 44.4537Z" fill="#001434"/>
<path d="M63.6643 33.0052C63.3598 33.4462 63.5978 35.4237 63.6643 36.5472C63.6993 37.0932 64.4833 37.2472 64.4833 35.7632C64.4973 33.7542 64.1578 32.3577 63.6643 33.0052Z" fill="#001434"/>
<path d="M31.307 14.3536C32.7385 14.0036 33.624 14.3536 34.107 14.3536C34.59 14.3536 34.6845 13.7726 34.107 13.5696C33.2221 13.2372 32.2532 13.2003 31.3455 13.4646C30.789 13.6711 30.7645 14.5006 31.307 14.3536Z" fill="#001434"/>
<path d="M68.3475 43.0221C68.295 27.5941 66.902 18.7426 52.16 21.1086C52.7598 18.7918 53.1926 16.4349 53.455 14.0561C53.9345 9.99962 51.957 7.85412 48.4115 7.10512C46.1645 6.62562 43.711 7.17162 42.3145 8.97762C42.0065 8.02562 41.0195 7.80162 40.029 7.81912C38.629 7.84362 39.679 4.80912 37.201 4.14062C35.521 3.73112 34.429 5.92212 34.051 5.19062C33.372 3.82912 33.029 1.75012 30.8835 1.75012C28.8045 1.75012 28.122 4.20012 27.4395 5.77162C27.0895 6.61862 26.589 3.06262 24.1355 4.02162C21.5245 5.04012 22.508 9.47462 21.3075 9.47462C20.625 9.54462 20.107 9.56912 19.7745 9.84912C19.218 10.3146 18.784 11.1126 18.8855 12.7471C18.3745 11.9281 17.0795 11.8266 16.0575 12.3726C13.5375 9.74762 10.23 10.0871 7.84654 12.4391C2.90454 17.2691 8.82304 22.8061 13.0265 27.8111C11.7315 28.0841 10.265 28.3221 11.3885 29.3756C13.569 31.4231 16.9885 35.4096 21.136 33.1591C21.2025 34.0796 21.3075 34.6921 21.5455 35.1016C17.1145 38.0276 16.8905 40.1136 15.8195 45.2901C15.683 45.3601 15.2735 45.4966 15.0005 45.5981C14.6505 44.9156 13.877 43.3161 12.6835 42.8716C10.5835 42.0561 4.12954 44.5096 3.00604 47.4391C2.65604 48.3246 4.02804 51.5971 4.98354 53.9491C5.80254 56.0281 7.26554 59.8781 7.81154 60.5606C7.46154 61.3446 6.00554 65.2611 5.71154 67.0356C5.61004 67.6131 6.22254 67.8511 6.42904 67.1686C7.00718 65.1513 7.68943 63.1653 8.47304 61.2186C9.59654 61.7961 18.8995 62.6816 19.106 62.5451C19.6835 64.2496 19.9215 65.7161 20.2645 67.7951C20.366 68.4076 21.094 68.3726 21.0835 67.8616C21.0485 66.3601 20.093 62.7166 19.9565 62.3771C20.366 62.5451 24.797 59.5771 26.4315 58.1491C27.317 59.8186 29.0215 63.9101 29.2315 64.3511C29.4415 64.7921 30.152 64.7606 29.9105 64.0011C29.4345 62.4681 27.5935 58.6181 27.1105 57.5611C29.361 55.3456 28.6435 54.7996 23.1555 53.9141C20.191 53.4381 18.931 53.3016 18.3535 53.2666C18.0035 52.6191 17.909 52.4476 17.671 52.0381C17.398 51.4956 16.376 51.4956 16.7855 52.2446C17.195 52.9936 17.0235 52.6856 17.398 53.3681C16.579 53.6761 11.098 57.5681 9.96754 58.5831C9.45654 59.0591 9.90104 59.5351 11.231 58.5481C18.434 53.1896 17.2335 53.7111 23.0225 54.5966C26.701 55.1741 27.282 55.5836 27.3485 55.8216C27.52 56.2661 26.736 56.7771 24.1985 58.7196C20.6985 61.3761 19.7675 61.5371 19.2985 61.6141C18.7525 61.7051 17.9685 61.6841 13.268 61.1731C10.881 60.9001 9.18704 60.6866 8.52904 60.1511C7.87104 59.6156 6.58654 55.6186 5.77104 53.6411C4.91704 51.5621 3.69204 48.2896 3.93004 47.6421C4.98004 45.0521 11.2555 43.1796 12.2775 43.6906C13.4045 44.2366 13.8805 45.2901 14.1535 45.9411C12.792 46.6411 12.3475 47.3691 12.519 48.0411C13.268 50.7676 23.901 53.1196 26.729 53.5291C28.227 53.7321 28.7065 52.7801 28.9095 52.0276C29.284 50.5961 30.033 47.7366 30.341 46.2701C30.4075 45.8956 30.817 45.7241 31.16 45.6226C30.544 56.5426 32.9485 54.9256 50.1055 55.6081C50.1755 56.6301 50.1755 57.9601 50.1755 59.3216C42.6435 59.8676 41.8245 63.1051 41.926 65.3521C42.031 67.5011 45.1985 66.9551 44.9255 64.9461C44.789 63.9206 43.837 63.5811 43.053 63.7526C43.4625 62.2196 44.9255 60.4136 50.1755 60.2071C50.1755 62.0481 50.1755 63.7876 50.242 64.9461C48.6425 65.5236 48.8805 68.2151 50.991 68.0961C51.4115 68.096 51.8155 67.9323 52.1174 67.6396C52.4194 67.347 52.5957 66.9484 52.6091 66.5281C52.623 66.1079 52.4729 65.6987 52.1905 65.3871C51.9081 65.0755 51.5156 64.886 51.096 64.8586C50.991 63.7351 50.991 61.8941 51.026 60.1896C55.422 60.3261 58.1135 60.5991 59.2055 63.8051C58.9998 63.7301 58.7798 63.7026 58.5619 63.7245C58.344 63.7464 58.1339 63.8173 57.9473 63.9318C57.7606 64.0462 57.6021 64.2011 57.4836 64.3853C57.3651 64.5694 57.2897 64.7778 57.263 64.9951C56.955 67.0076 60.091 67.5536 60.2625 65.4046C60.637 60.8546 56.514 59.4056 51.061 59.3391C51.061 57.9776 51.061 56.6826 50.991 55.6256C57.1615 55.7621 65.4285 54.5546 67.553 50.8866C68.386 49.4796 68.3825 47.2151 68.3475 43.0221ZM50.459 23.3941C49.843 24.3146 46.469 26.6316 45.174 27.4821C43.5185 28.6371 45.0515 29.2846 45.755 32.7986C39.315 28.4376 28.101 26.8696 27.205 36.0011C25.5005 35.7631 23.2185 35.1856 22.774 35.1156C22.4695 35.0491 22.1265 34.5696 22.025 32.9351C25.98 31.3321 26.6275 29.3896 26.9005 28.5391C27.2087 28.4786 27.5068 28.3749 27.786 28.2311C28.024 28.6406 28.9095 29.7991 29.6935 29.9041C30.0435 29.9706 31.7025 29.2881 32.35 28.6756C32.7 28.3256 32.42 27.9266 32.0455 28.1296C29.9875 29.1096 29.6375 29.5541 28.5455 27.7796C28.9338 27.5023 29.2782 27.1685 29.5675 26.7891C34.919 27.4891 44.2675 24.0976 40.2355 17.9656C40.5855 17.2481 40.9355 16.1246 41.2225 15.3756C43.879 16.4641 48.653 17.2831 52.16 16.9086C51.5475 20.4611 51.0015 22.5751 50.459 23.3941ZM40.337 38.1851C40.099 38.1501 39.987 38.3881 39.9625 38.6261C39.6277 40.4192 39.0297 42.1529 38.188 43.7711C36.0075 42.2731 31.818 39.6131 27.688 37.8771C28.269 35.2171 28.6435 32.3226 30.9605 30.9926C35.3215 28.8121 43.025 31.4371 46.0105 34.1636C48.9645 38.1851 45.174 44.1036 39.9275 42.0036C40.302 40.9781 40.9145 38.2516 40.337 38.1851ZM37.747 44.5551C36.8265 45.7486 34.884 44.9996 32.7035 44.1456C28.409 42.4446 25.238 41.2161 24.9685 39.8546C24.8635 39.3086 25.4095 39.1021 27.114 38.6261C30.8632 40.2216 34.4332 42.209 37.7645 44.5551H37.747ZM23.502 19.8486C28.85 20.3036 26.75 12.6211 21.8325 15.2146C21.9865 14.8261 22.3155 14.0526 22.718 13.9546C23.6035 13.7481 24.762 13.7481 25.4095 14.0211C25.931 14.2451 26.7045 12.9711 23.943 12.9711C25.4445 12.3236 26.911 13.1076 28.4755 13.1076C32.3255 13.1426 34.849 11.2001 36.725 16.1421C37.3025 17.6401 38.699 17.9831 39.588 18.7671C40.267 19.3446 40.6765 20.5731 40.064 22.1726C37.8065 28.0316 17.762 27.6501 20.912 18.5956C21.2515 19.4741 22.445 19.7471 23.502 19.8486ZM22.648 18.8266C23.502 17.8396 24.4225 16.7826 25.035 15.9986C26.736 17.5736 25.4025 19.7436 22.648 18.8266ZM42.5175 10.9201C42.7905 8.97762 44.3235 7.92062 46.0945 7.85412C45.9655 8.59319 45.783 9.32194 45.5485 10.0346C45.3805 10.5456 46.231 10.5806 46.4375 9.99962C46.7113 9.3131 46.8834 8.59033 46.9485 7.85412C47.8988 7.90522 48.8326 8.12432 49.7065 8.50162C49.6684 9.20932 49.5665 9.91212 49.402 10.6016C49.3005 11.1441 50.06 11.1511 50.2525 10.7031C50.4406 10.1297 50.5443 9.53192 50.5605 8.92862C53.1155 9.97862 52.944 13.5661 52.3105 16.0861C48.905 16.5306 43.7915 15.7116 41.2715 14.5181C40.9039 14.3407 40.614 14.0348 40.4567 13.6582C40.2993 13.2815 40.2854 12.8603 40.4175 12.4741C40.6765 11.3996 42.381 12.0436 42.5175 10.9201ZM20.5025 10.6821C20.877 10.4791 21.731 10.5456 22.137 10.3076C23.187 9.69512 22.6165 5.75762 24.524 4.88962C25.308 4.51512 25.7 5.04712 26.274 5.91162C28.633 9.54462 28.283 2.67412 30.9395 2.63912C32.8155 2.60412 33.0395 6.13912 34.0895 6.28612C35.01 6.42262 35.9935 4.70412 37.0225 4.99112C37.936 5.24662 38.2825 6.08312 38.454 7.24162C38.8285 9.52362 40.155 8.19362 41.212 8.84112C41.562 9.04762 41.758 9.54112 41.6215 10.8186C41.0755 8.36862 39.5215 10.3741 38.419 10.1711C37.635 10.0346 38.5555 7.54612 37.67 7.07012C36.4065 6.42262 34.569 8.36512 33.5785 7.95562C32.693 7.58112 33.0675 4.61662 31.8285 4.30862C30.2255 3.89912 28.759 8.50862 27.6285 8.53662C26.5785 8.56812 26.2285 7.00012 25.3115 7.40962C24.2195 7.92062 23.5055 11.1581 22.823 11.4311C22.039 11.7391 21.563 11.4311 21.255 11.6691C20.779 12.0436 20.4045 13.1356 20.268 15.3861C19.4805 12.4531 20.128 10.8851 20.5025 10.6821ZM7.38104 14.5321C7.65404 15.3861 8.47304 16.5446 9.05054 16.2821C9.09605 16.2549 9.1348 16.2178 9.16385 16.1734C9.1929 16.1291 9.2115 16.0787 9.21824 16.0261C9.22498 15.9736 9.21969 15.9201 9.20277 15.8699C9.18584 15.8196 9.15772 15.7739 9.12054 15.7361C8.577 15.1624 8.19011 14.4585 7.99704 13.6921C8.50552 13.1393 9.07633 12.6472 9.69804 12.2256C11.063 15.4736 12.008 14.0106 11.609 13.6921C11.067 13.1831 10.6769 12.5337 10.482 11.8161C14.164 10.1816 15.221 13.9966 16.481 13.2476C17.881 12.4321 19.071 13.8286 18.322 15.2251C17.4365 16.8596 13.5515 20.2336 9.18704 21.9031C7.86054 19.9851 5.88304 17.1921 7.38104 14.5321ZM17.1145 26.9711C16.6735 26.8696 15.3435 27.2091 14.0135 27.6186C12.4504 26.0567 11.0034 24.3828 9.68404 22.6101C13.366 21.1436 16.978 18.4101 18.546 16.4081C19.092 16.9191 19.7045 17.4581 20.296 17.9061C18.6265 21.2451 20.5655 25.0286 25.644 26.3236C25.6846 26.555 25.742 26.7832 25.8155 27.0061C22.0355 29.8691 18.1645 27.2441 17.1145 26.9711ZM26.281 52.6331C20.7615 51.3731 14.031 49.5321 13.7055 47.8626C13.569 47.2501 14.2165 46.7356 16.3305 46.1126C20.933 47.9886 26.4525 50.7816 28.0205 52.2481C27.7615 52.5981 27.317 52.8536 26.295 52.6331H26.281ZM30.439 45.0661C29.5535 45.4161 29.7565 45.9201 28.2585 51.3381C26.1585 49.6336 20.59 46.9421 16.74 45.3391C17.7375 40.5301 17.846 38.5211 22.193 35.7631C22.977 36.1376 25.1575 36.5121 26.9985 36.8131C26.9285 37.0511 26.862 37.5131 26.792 37.7686C25.0875 38.3111 24.307 38.7906 24.1355 39.4731C23.6595 41.3806 27.2855 42.7771 31.734 44.5481C31.783 44.5551 31.3385 44.7266 30.453 45.0661H30.439ZM66.8705 50.4841C65.0645 52.8361 61.4175 54.2361 55.828 54.6841C50.137 55.1601 40.253 54.4811 38.4155 54.3341C33.344 53.9036 31.7655 53.5746 32.1155 45.3706L33.071 45.0206C36.718 46.3156 38.1145 46.9631 39.581 42.8051C45.5765 45.1886 50.081 38.4756 46.7035 33.7051C46.6335 32.1371 45.951 30.3311 45.4085 29.1061C45.167 28.5601 45.237 28.5251 45.6115 28.2521C49.1115 25.7321 51.0295 25.1021 51.8835 22.0501C58.0155 21.1996 61.1865 21.8121 63.5035 23.9926C66.0935 26.4426 67.182 31.3426 67.42 41.4086C67.5635 44.7266 67.5985 49.5321 66.8845 50.4841H66.8705Z" fill="#001434"/>
<path d="M64.5674 40.1591C63.8335 40.0579 63.092 40.024 62.3519 40.0576C53.8329 40.4076 52.2299 45.6576 52.9019 51.8141C53.0384 53.1791 53.9239 53.1791 53.8539 52.6331C52.8844 43.6801 56.1884 40.8766 63.9409 40.8766C65.0084 40.8766 65.2149 40.2536 64.5674 40.1591Z" fill="#001434"/>
<path d="M58.9082 24.6189C61.2252 25.5044 62.4082 27.3139 63.2377 29.8689C63.4757 30.6179 64.0217 29.8339 63.7837 29.0499C63.3392 27.5169 62.0337 24.9269 59.8637 24.1079C58.6037 23.6319 58.3657 24.4159 58.9082 24.6189Z" fill="#001434"/>
<path d="M33.043 20.0551C39.4512 20.0551 35.192 12.5581 31.1005 15.7956C29.501 17.0206 30.0435 20.0551 33.043 20.0551ZM34.646 16.2716C36.7247 18.2806 34.611 19.5756 32.224 19.0996C33.043 18.2036 33.9985 17.1221 34.646 16.2716Z" fill="#001434"/>
<path d="M58.3652 43.8413C57.7842 43.6348 57.4762 44.1143 57.8192 44.3173C58.3652 44.6673 58.9532 45.0978 59.1457 45.7173C59.7967 47.7858 58.7957 51.4923 59.4957 51.9543C59.8632 52.2028 59.9367 51.4783 59.9367 51.1353C59.9997 47.6563 60.8852 44.8038 58.3652 43.8413Z" fill="#001434"/>
<path d="M28.6823 23.4538C28.9801 23.7391 29.3483 23.94 29.7494 24.0359C30.1504 24.1319 30.5697 24.1194 30.9643 23.9998C32.0143 23.6918 32.3643 22.3303 32.0563 21.5113C31.8183 20.8323 31.1708 20.4228 30.9293 21.0003C30.1278 23.0408 26.4353 21.5953 26.9113 22.4318C27.1598 22.8763 28.2063 23.0513 28.6823 23.4538Z" fill="#001434"/>
<path d="M27.8629 20.5978C28.5104 20.5313 27.6599 19.5093 28.1359 18.8968C28.2539 18.7541 28.4068 18.6443 28.5797 18.578C28.7527 18.5118 28.9398 18.4914 29.1229 18.5188C29.6689 18.5188 29.7389 17.8188 29.1579 17.7698C28.8301 17.7152 28.4936 17.7516 28.185 17.875C27.8765 17.9985 27.6077 18.2042 27.4079 18.4698C26.8409 19.1663 27.2644 20.6538 27.8629 20.5978Z" fill="#001434"/>
</svg>
