<svg width="76" height="76" viewBox="0 0 76 76" fill="none" xmlns="http://www.w3.org/2000/svg">
<path d="M23.7909 67.0719C26.8429 60.3879 32.7269 67.2959 25.6349 73.8719C22.8349 73.1439 19.9389 71.3599 18.6989 68.9959C18.2549 66.8279 20.8509 64.4319 23.7909 67.0719Z" fill="#FF9F1C"/>
<path d="M59.4351 52.0001C59.4351 52.0001 60.0511 49.2841 60.2351 47.6561C61.3551 48.3241 63.2151 49.7841 64.2351 50.2801C66.2351 49.1481 68.3191 47.7441 68.3191 47.7441C68.5626 49.1249 68.6657 50.5266 68.6271 51.9281C70.2729 52.1922 71.9022 52.5501 73.5071 53.0001L69.8111 56.2841L71.7551 60.8401C71.7551 60.8401 68.9871 60.4881 66.7431 60.3401C66.3049 61.7719 65.943 63.2259 65.6591 64.6961C65.6591 64.6961 64.0871 63.2401 62.7511 61.9601C60.3751 62.8921 58.8391 63.6721 58.8391 63.6721L57.9871 59.8281L54.5671 58.8001L57.0191 55.8761L55.3551 52.4521L59.4351 52.0001Z" fill="#FF9F1C"/>
<path d="M9.96719 37.6998C9.8609 37.6979 9.75805 37.6619 9.67379 37.5971C9.58953 37.5323 9.52832 37.4421 9.49919 37.3398C5.48719 22.3998 4.08719 16.9438 7.03119 14.7718C9.34719 13.0638 14.6872 11.6918 16.2872 11.7478C17.7872 11.7798 18.0712 14.0958 19.5232 14.1478C21.2112 14.1718 28.3232 12.6678 31.9672 11.4798C35.5432 10.2798 34.8592 9.01985 35.8912 7.04385C36.8872 5.49185 44.6352 3.90385 47.0912 5.14385C49.5472 6.38385 50.1712 12.5558 50.8392 15.6198C51.0152 16.4398 50.1712 16.8198 49.9112 15.8198C49.6952 15.0198 49.5472 13.7158 49.3472 12.7998C48.7552 10.0758 48.1472 6.76785 46.6552 5.99985C44.5672 4.94385 37.3792 6.51185 36.7112 7.55585C35.8112 9.51985 36.2192 11.0358 32.2872 12.3998C28.4792 13.6318 21.3112 15.1518 19.5272 15.1118C17.7952 15.1678 17.3992 13.1838 16.2792 12.7118C14.8352 12.6798 9.69519 13.9998 7.60719 15.5558C4.36719 18.3558 8.70719 29.3558 10.4352 37.0838C10.4548 37.156 10.4576 37.2317 10.4433 37.305C10.429 37.3784 10.3981 37.4475 10.3529 37.5071C10.3076 37.5666 10.2493 37.6149 10.1825 37.6484C10.1156 37.6818 10.0419 37.6994 9.96719 37.6998Z" fill="#FF9F1C"/>
<path d="M19.1432 63.5999C16.8472 63.1999 16.2912 60.9399 15.1432 57.2439C15.1204 57.123 15.1442 56.998 15.2097 56.8939C15.2752 56.7897 15.3776 56.7141 15.4964 56.6823C15.6152 56.6504 15.7417 56.6646 15.8505 56.7221C15.9593 56.7795 16.0424 56.8759 16.0832 56.9919C17.0432 60.2319 17.3352 62.0679 19.4592 62.5919C20.0152 62.7279 21.3712 62.7959 25.2312 61.8919C25.2932 61.8775 25.3574 61.8754 25.4202 61.8858C25.483 61.8961 25.5431 61.9188 25.5972 61.9524C25.6512 61.986 25.6981 62.0299 25.7352 62.0817C25.7722 62.1334 25.7987 62.1919 25.8132 62.2539C25.8276 62.3159 25.8297 62.3801 25.8194 62.4429C25.809 62.5057 25.7863 62.5659 25.7527 62.6199C25.7191 62.6739 25.6752 62.7208 25.6234 62.7579C25.5717 62.795 25.5132 62.8215 25.4512 62.8359C21.4872 63.7879 20.4792 63.8559 19.1432 63.5999Z" fill="#FF9F1C"/>
<path d="M49.2992 56.7521C49.186 56.7439 49.0792 56.6965 48.9972 56.6181C48.9152 56.5396 48.863 56.4351 48.8498 56.3224C48.8365 56.2096 48.863 56.0958 48.9246 56.0005C48.9861 55.9052 49.079 55.8343 49.1872 55.8001C52.1712 54.9801 53.3392 54.2001 53.3592 54.2001C53.4738 54.1412 53.6071 54.1302 53.7297 54.1696C53.8524 54.209 53.9544 54.2955 54.0132 54.4101C54.0721 54.5246 54.0831 54.6579 54.0437 54.7806C54.0043 54.9032 53.9178 55.0052 53.8032 55.0641C52.3914 55.8415 50.8743 56.4101 49.2992 56.7521Z" fill="#FF9F1C"/>
<path d="M57.9791 48.8C57.1791 48.992 56.3791 44.696 55.9391 43.432C55.9089 43.3068 55.9296 43.1747 55.9967 43.0648C56.0639 42.9549 56.1719 42.8762 56.2971 42.846C56.4223 42.8157 56.5544 42.8365 56.6643 42.9036C56.7741 42.9707 56.8529 43.0788 56.8831 43.204C57.3111 44.728 58.8511 48.576 57.9791 48.8Z" fill="#FF9F1C"/>
<path d="M63.4591 47.672C62.6831 47.5 62.6071 45.904 62.1831 44.036C62.1685 43.97 62.1678 43.9017 62.1811 43.8354C62.1943 43.7692 62.2211 43.7064 62.2599 43.651C62.2986 43.5956 62.3485 43.5489 62.4062 43.5138C62.464 43.4787 62.5284 43.456 62.5954 43.4471C62.6624 43.4382 62.7305 43.4433 62.7954 43.4621C62.8603 43.481 62.9206 43.513 62.9725 43.5564C63.0244 43.5997 63.0667 43.6533 63.0967 43.7139C63.1268 43.7744 63.1439 43.8405 63.1471 43.908C63.2471 45.808 64.6111 47.46 63.4591 47.672Z" fill="#FF9F1C"/>
<path d="M32.687 68.7039C32.243 68.7039 31.427 67.9879 33.607 67.3679C37.019 66.2639 47.279 62.7119 50.591 62.0639C50.6491 62.0352 50.7125 62.0189 50.7772 62.0162C50.842 62.0134 50.9066 62.0243 50.9669 62.048C51.0272 62.0718 51.0818 62.1079 51.1273 62.154C51.1728 62.2001 51.2081 62.2553 51.231 62.3159C51.455 63.2239 47.383 63.7559 43.075 65.3479C40.687 66.2239 33.795 68.6959 32.687 68.7039Z" fill="#FF9F1C"/>
<path d="M39.3311 70.5161C38.5071 70.6521 38.3311 70.0241 38.8511 69.7561C39.7271 69.3041 41.5791 69.0441 41.8591 68.9761C43.2311 68.6801 49.6711 65.4921 50.0391 66.9241C50.0492 66.9881 50.0459 67.0534 50.0295 67.1161C50.0131 67.1787 49.9838 67.2373 49.9436 67.288C49.9034 67.3388 49.853 67.3807 49.7958 67.411C49.7386 67.4413 49.6757 67.4594 49.6111 67.4641C48.3551 67.4001 43.6431 69.4161 42.0871 69.9161C40.8031 70.1761 40.6351 70.3001 39.3311 70.5161Z" fill="#FF9F1C"/>
<path d="M12.0471 27.2C8.28712 27.372 7.50712 21.548 11.4871 20.852C16.4911 19.908 16.9031 27.3 12.0471 27.2ZM12.2871 21.744C10.8071 21.688 9.33912 23.052 9.83912 24.588C10.4111 26.588 12.4071 26.22 12.6391 26.188C14.9031 26.048 15.5471 21.864 12.2871 21.744Z" fill="#FF9F1C"/>
<path d="M15.8871 19.2001C12.7911 17.6761 26.0191 16.4001 26.9991 15.6561C31.0911 14.4201 35.9271 13.9241 39.4671 12.4561C40.6471 12.1921 45.2831 10.0561 45.9191 11.3201C45.9257 11.3832 45.9198 11.447 45.9016 11.5077C45.8834 11.5685 45.8534 11.6251 45.8132 11.6742C45.7731 11.7233 45.7236 11.7639 45.6676 11.7938C45.6116 11.8236 45.5503 11.8421 45.4871 11.8481C40.7551 12.4801 37.9551 14.5241 32.8231 15.2641C29.8191 15.7121 25.5711 17.2321 22.6631 17.7081C20.3565 17.9549 18.0841 18.4552 15.8871 19.2001Z" fill="#FF9F1C"/>
<path d="M17.2789 22.1638C17.1585 22.1649 17.0419 22.1214 16.9515 22.0418C16.8612 21.9621 16.8035 21.8518 16.7896 21.7321C16.7757 21.6125 16.8066 21.4919 16.8762 21.3936C16.9459 21.2954 17.0494 21.2263 17.1669 21.1998C18.249 20.9373 19.3437 20.7304 20.4469 20.5798C22.0789 20.5278 24.8469 18.7758 25.1389 19.6878C25.5589 21.0038 18.1109 21.8558 17.2789 22.1638Z" fill="#FF9F1C"/>
<path d="M18.3832 25.3122C17.0152 24.5962 18.5552 24.0202 20.7592 23.6882C21.1592 23.6882 22.1352 23.1882 22.3032 23.9002C22.4712 24.6122 21.2792 24.5362 20.8912 24.6522C18.9872 24.9242 18.8632 25.2362 18.3832 25.3122Z" fill="#FF9F1C"/>
<path d="M19.8271 11.1439C19.6271 9.97589 20.8511 9.99589 23.0591 9.42389C25.4871 8.79989 28.6871 7.86789 28.6311 9.35989C28.6031 10.3679 27.0631 10.4199 24.9351 10.9119C22.7431 11.4159 20.0311 12.3279 19.8271 11.1439Z" fill="#FF9F1C"/>
<path d="M32.687 9.02009C33.771 8.17209 32.499 6.07609 31.203 7.23209C30.9659 7.42888 30.8167 7.7118 30.7882 8.01861C30.7597 8.32542 30.8542 8.63099 31.051 8.86809C31.2478 9.10519 31.5307 9.25441 31.8375 9.28292C32.1443 9.31142 32.4499 9.21688 32.687 9.02009Z" fill="#FF9F1C"/>
<path d="M16.1432 76C15.2272 76.232 13.1712 63.54 11.3432 59.452C7.15123 47.7 3.88723 32.024 1.19523 21.124C-1.79677 10.52 8.82323 8.58401 18.3112 6.59201C26.1712 4.99201 41.6832 0.312007 46.8672 0.0680069C52.4152 -0.679993 53.4552 4.96401 54.5752 9.86801C54.6952 11.008 56.9272 19.124 56.0312 18.968C54.9312 18.968 55.1512 16.656 54.6632 15.056C53.8632 11.22 52.9512 5.60401 51.2312 2.69201C49.9952 0.944007 48.5632 1.06401 46.9112 1.04001C43.8872 1.01601 30.8832 4.51201 24.2872 6.22001C18.3232 7.76401 11.2872 8.70401 5.88723 11.164C0.487227 13.624 1.79923 19.684 2.12723 20.868C2.70323 22.956 5.39123 34.508 5.99523 37.408C7.75123 45.724 15.2552 67.808 16.6112 75.408C16.6282 75.4787 16.6289 75.5522 16.6132 75.6232C16.5976 75.6942 16.5661 75.7607 16.521 75.8177C16.476 75.8747 16.4185 75.9207 16.3531 75.9523C16.2877 75.9839 16.2159 76.0002 16.1432 76Z" fill="#FF9F1C"/>
<path d="M37.4873 28.8601C38.2313 28.9561 38.2313 28.0921 39.9953 28.1681C40.6953 28.2001 40.8953 27.2761 40.0473 27.1521C39.082 26.9966 38.0936 27.2109 37.2793 27.7521C36.7433 28.1721 36.8633 28.8001 37.4873 28.8601Z" fill="#001434"/>
<path d="M35.2874 36.6842C34.6994 37.0842 35.2874 37.7842 35.9394 37.3762C36.7154 36.9002 37.4994 35.2202 35.1594 33.9442C35.0533 33.8844 34.9287 33.8665 34.8101 33.8939C34.6915 33.9213 34.5874 33.992 34.5182 34.0922C34.4491 34.1924 34.4199 34.3148 34.4364 34.4355C34.4529 34.5561 34.5139 34.6662 34.6074 34.7442C35.0874 35.1802 35.6674 35.4882 35.7634 35.8722C35.7672 36.0383 35.7246 36.2023 35.6406 36.3457C35.5565 36.4891 35.4342 36.6063 35.2874 36.6842Z" fill="#001434"/>
<path d="M45.2273 26.152C46.0993 26.176 47.4953 25.16 48.0473 24.996C49.7233 24.504 48.7873 25.396 50.4473 25.836C51.9673 26.236 52.8153 24.544 51.5993 23.56C50.3833 22.576 49.3353 23.18 48.6113 23.4C47.0113 23.896 47.5553 22.536 45.8753 22.776C44.2753 23.008 44.2753 24.588 41.8513 24.296C39.8913 24.06 39.0753 25.428 40.0193 26.152C41.3513 27.172 42.9233 26.972 43.3753 26.208C43.8873 25.336 44.1113 26.124 45.2273 26.152Z" fill="#001434"/>
<path d="M39.459 35.6001C42.707 35.4281 44.283 33.2721 43.835 31.5161C43.399 29.8241 41.327 28.6001 38.839 29.7681C35.995 31.1001 36.451 35.7521 39.459 35.6001ZM37.887 33.0881C37.7983 32.4946 37.9352 31.8895 38.2706 31.3919C38.606 30.8943 39.1156 30.5405 39.699 30.4001C39.655 31.5361 39.763 33.2001 40.531 34.4481C39.207 34.9481 38.119 34.4841 37.887 33.0881Z" fill="#001434"/>
<path d="M37.851 39.636C37.135 38.556 33.235 39.2641 34.063 42.3881C34.631 44.5441 36.251 44.7001 37.231 44.4281C38.115 44.1841 38.163 43.4841 37.779 42.0281C37.599 41.3641 38.447 40.536 37.851 39.636Z" fill="#001434"/>
<path d="M43.5829 18.1798C42.5109 18.6118 42.7029 19.5918 41.8189 20.3678C40.8229 21.2358 39.4189 19.1678 37.4189 22.8638C36.7109 24.1798 35.6829 23.2998 34.6589 24.1598C33.0149 25.5518 35.6069 27.8478 37.9949 26.1358C39.1709 25.2878 38.3629 24.3718 38.8829 23.9238C39.5869 23.3118 40.5869 23.7678 41.9669 23.3718C42.9589 23.0918 42.1549 21.6638 43.1989 21.2038C43.9989 20.8558 44.7229 21.2958 45.9989 20.9078C46.9629 20.6158 46.7349 19.6358 47.5389 19.7838C48.3429 19.9318 49.1629 21.1398 50.1949 21.1958C50.9069 21.2358 52.6189 20.7438 51.8709 18.7958C51.3909 17.5518 49.6989 17.4918 47.3389 18.1798C46.2429 18.5038 45.0869 17.5718 43.5829 18.1798Z" fill="#001434"/>
<path d="M25.659 29.484C26.499 29.3 28.183 28.5 27.911 27.104C27.547 25.26 27.911 24.944 29.483 23.316C30.455 22.316 28.683 20.996 29.775 20.708C33.799 19.648 34.175 18.284 33.731 17.052C33.247 15.664 30.531 16.364 29.887 18.376C29.323 20.156 27.487 19.716 26.263 21.196C24.263 23.596 28.143 23.892 25.603 25.916C23.487 27.6 23.991 29.848 25.659 29.484Z" fill="#001434"/>
<path d="M27.2912 31.5239C28.0912 30.4959 30.3072 30.9519 30.2592 30.1159C30.1752 28.6599 27.0592 29.8559 26.5272 30.9159C26.2552 31.4879 26.9032 32.0239 27.2912 31.5239Z" fill="#001434"/>
<path d="M30.6868 24.0001C27.5988 25.9081 28.4868 28.5041 30.5348 27.8881C32.3428 27.3441 33.9308 26.3361 33.3868 24.7801C32.7548 22.9841 34.3788 23.6961 35.6948 22.3801C36.6788 21.3801 36.5468 19.6201 38.1388 19.5801C41.8948 19.4961 40.2828 17.2561 41.8788 16.5361C43.1028 15.9881 43.7468 17.0161 45.1228 16.6801C46.4988 16.3441 45.9828 14.5521 45.2188 14.0521C44.0628 13.3001 42.2148 13.3841 40.1588 16.0521C38.9148 17.6521 36.5588 15.5081 35.8228 18.4521C35.2268 20.8241 34.2228 19.5441 32.8868 20.4001C30.5028 21.9041 32.0308 23.2001 30.6868 24.0001Z" fill="#001434"/>
<path d="M69.115 35.5202C68.499 33.1482 67.959 31.4642 67.295 29.6042C69.695 28.3322 74.711 26.9922 74.495 26.1882C74.219 25.1402 69.339 27.5522 66.943 28.6962C65.571 25.7722 65.223 24.6602 64.523 23.2682C65.267 22.0122 68.479 18.9122 67.831 18.2562C67.183 17.6002 64.527 21.2082 63.759 22.2122C63.019 21.1042 61.023 18.4602 59.495 18.8362C56.575 20.1082 50.007 30.1402 46.295 33.3762C45.9304 31.3716 45.2083 29.449 44.163 27.7002C43.799 27.0762 43.143 27.5842 43.435 28.0602C44.527 29.8893 45.2259 31.9259 45.487 34.0402C45.291 34.1922 45.087 34.3442 44.887 34.4882C43.011 35.8042 40.087 35.9762 39.531 38.0322C39.271 39.0042 39.607 41.1962 41.155 42.4322C38.503 45.3522 37.899 47.0922 36.703 47.5762C33.823 48.7362 32.703 45.1762 26.119 45.7882C25.9491 45.8141 25.7754 45.7936 25.6162 45.7288C25.4571 45.664 25.3184 45.5574 25.215 45.4202C23.711 43.2402 21.771 37.2242 23.887 31.6002C24.087 31.0802 23.347 30.7002 23.087 31.3842C20.895 37.5522 22.639 42.2402 24.139 45.6002C24.463 46.3362 23.443 46.6962 22.799 46.2162C20.183 44.2602 17.155 37.9242 17.835 33.6562C18.551 29.1602 22.703 27.0402 24.415 26.3322C24.815 26.1722 24.435 25.5922 24.043 25.7522C16.843 28.6362 16.223 33.4282 16.619 36.0602C15.019 36.4202 15.303 37.4042 14.651 37.8682C14.315 38.1082 13.191 37.2842 12.175 37.4442C11.023 37.6242 11.339 39.5682 10.207 39.7282C8.93099 39.9042 7.27099 39.6482 7.98699 41.9282C8.58699 43.8322 10.559 43.7482 11.103 41.5282C11.395 40.3282 12.763 41.3082 13.367 41.0762C14.435 40.6762 14.347 39.7722 14.863 40.2241C16.203 41.3841 12.995 41.7962 12.159 43.5002C11.575 44.7002 12.403 45.5562 11.959 46.7521C11.699 47.4562 9.58699 47.6202 9.86299 48.9002C10.363 51.1882 13.887 52.0121 13.711 49.5002C13.647 48.6082 13.251 47.5282 13.447 47.0002C13.771 46.1082 14.799 45.7242 15.363 45.2722C16.895 44.0442 16.035 42.5402 17.111 42.7002C17.775 42.8002 17.783 43.7642 17.155 45.1282C16.587 46.3682 15.599 46.0882 15.235 47.4081C14.835 48.7921 16.463 48.9801 15.703 50.1161C15.267 50.7681 13.967 51.4682 14.303 52.6322C14.851 54.5082 17.279 54.5682 17.791 53.3522C18.303 52.1362 17.455 51.4921 17.747 50.3562C18.007 49.3322 19.099 49.0082 19.459 48.3242C20.303 46.7241 18.995 44.4442 20.071 44.5961C20.655 44.6802 19.851 45.1162 20.767 46.5482C21.631 47.8882 18.939 48.4242 20.027 50.5802C19.719 51.4562 19.315 52.5282 19.319 53.2962C19.343 59.9522 24.211 59.8562 30.555 62.2402C32.619 62.9722 34.927 63.5761 36.663 63.5241C41.415 63.3722 43.167 60.4762 45.863 57.9642C51.139 53.0162 54.999 46.1642 50.379 40.8922C54.623 41.2042 67.711 43.5721 68.843 42.4522C69.975 41.3321 69.767 39.1642 69.363 36.5642C70.811 37.1162 74.659 39.4362 75.063 38.4482C75.559 37.2322 70.727 36.3682 69.115 35.5202ZM41.115 41.0401C38.975 37.5402 41.115 37.1122 44.647 35.6802C44.503 36.7761 44.967 38.9321 45.623 40.0802C43.695 40.8001 42.099 42.5722 41.087 41.0401H41.115ZM21.783 57.5161C19.383 55.1161 20.183 51.1161 22.283 48.8602C24.311 46.6682 28.039 45.7202 31.947 47.4762C29.571 49.6402 27.215 55.0242 29.307 60.8121C26.263 59.7882 22.879 58.6241 21.783 57.5161ZM50.623 42.9522C50.9936 43.7304 51.2405 44.5618 51.355 45.4162C50.5028 45.4556 49.6576 45.5898 48.835 45.8162C48.7073 45.8537 48.5981 45.9375 48.5287 46.0511C48.4594 46.1647 48.4348 46.3001 48.4597 46.4309C48.4847 46.5616 48.5574 46.6784 48.6637 46.7585C48.7701 46.8386 48.9024 46.8763 49.035 46.8642C49.515 46.8442 50.271 46.4402 51.435 46.4002C51.743 51.5481 46.395 55.7402 43.315 59.3002C40.847 62.1482 36.543 63.9881 30.867 61.3481C27.427 56.3001 30.867 49.2601 32.995 47.8801C34.375 48.4121 35.935 49.4282 37.427 48.4882C40.079 46.1842 40.323 43.8162 42.967 42.2521C44.699 41.2281 48.395 39.5602 50.047 42.0282C49.3268 42.0882 48.6178 42.2443 47.939 42.4922C47.8338 42.5258 47.7428 42.5936 47.6805 42.6848C47.6182 42.7759 47.5881 42.8853 47.595 42.9955C47.6019 43.1057 47.6454 43.2105 47.7186 43.2932C47.7917 43.3759 47.8904 43.4319 47.999 43.4522C48.575 43.5562 49.715 42.9442 50.623 42.9522ZM57.591 40.8322C53.215 40.3202 49.839 39.5522 46.619 39.8882C45.819 38.7642 45.335 35.8082 45.743 34.9882C49.623 32.2482 54.747 24.5042 58.471 20.7442C57.939 27.7722 61.835 37.5442 67.167 41.8442C65.127 41.8682 60.883 41.2842 57.591 40.8322ZM60.179 27.7682C63.123 28.2762 65.779 31.8202 63.027 35.1642C61.7211 32.8514 60.7615 30.3595 60.179 27.7682ZM68.471 41.4642C67.763 41.4642 65.499 39.1681 63.539 36.0242C67.115 33.0602 63.987 26.7202 59.939 26.7642C59.195 23.1002 59.043 20.0322 59.939 19.7202C60.611 19.4842 62.195 21.4682 63.211 23.0522C62.651 23.6602 61.875 24.5962 62.207 24.9402C62.391 25.1322 63.163 24.6442 63.719 24.0682C64.5981 25.6731 65.3678 27.3355 66.023 29.0442C64.631 29.6802 64.955 30.5922 66.371 29.9522C67.0305 31.6762 67.5914 33.4364 68.051 35.2241C66.531 34.8561 66.587 34.9162 66.575 35.1642C66.563 35.4122 67.667 36.0562 68.367 36.3202C68.887 37.8482 68.823 40.9962 68.471 41.4642Z" fill="#001434"/>
<path d="M19.5913 40.3C19.5913 40.7 20.8433 41.18 20.9833 41.748C21.0753 42.112 21.0593 43.172 21.6233 43.028C21.9433 42.948 22.1233 41.628 21.7753 41.176C21.5164 40.8124 21.1804 40.5105 20.7913 40.292C20.7654 40.2747 20.7433 40.2524 20.7262 40.2265C20.7091 40.2005 20.6974 40.1713 20.6918 40.1407C20.6862 40.1101 20.6868 40.0787 20.6936 40.0483C20.7004 40.018 20.7132 39.9893 20.7313 39.964C21.6833 38.644 21.0113 38.676 19.7313 36.904C19.3313 36.324 21.1913 35.512 21.3673 34.784C21.6193 33.76 20.1153 33.472 20.0913 32.868C20.0913 32.364 21.5273 31.836 21.8433 31.084C21.9056 30.8579 21.916 30.6207 21.8738 30.3901C21.8315 30.1594 21.7377 29.9413 21.5993 29.752C21.2913 29.208 20.4993 29.572 20.7993 30.128C21.0273 30.548 20.9913 30.708 20.7353 30.892C19.7753 31.584 19.1353 32.092 19.0153 32.644C18.7953 33.748 20.4033 34.404 20.3913 34.7C20.3913 35.1 18.6753 35.664 18.6753 36.64C18.6753 37.744 20.0113 38.368 20.0753 38.964C20.1273 39.408 19.4633 39.768 19.5913 40.3Z" fill="#001434"/>
<path d="M32.439 37.904C33.987 35.884 32.039 31.932 29.091 32.848C26.623 33.616 25.591 35.476 25.463 37.068C25.087 41.68 30.715 40.148 32.439 37.904ZM28.287 34.228C28.307 35.636 28.503 37.74 29.403 38.792C25.715 40.532 25.591 35.68 28.287 34.228Z" fill="#001434"/>
</svg>
