<svg width="67" height="66" viewBox="0 0 67 66" fill="none" xmlns="http://www.w3.org/2000/svg">
<path d="M11.407 18.3303C11.6262 19.1443 12.1263 19.8546 12.8186 20.3356C13.511 20.8166 14.3511 21.0374 15.1905 20.9588C17.448 20.7313 20.0905 20.1748 21.8755 21.0603C23.4085 21.8443 24.875 22.5268 26.1035 22.4253C26.24 18.0258 28.935 16.2513 30.979 15.5023C33.023 14.7533 35.9245 14.8898 37.8005 15.6388C43.334 15.2888 44.8005 16.4823 46.4945 18.9113C49.123 15.5303 49.844 9.1113 47.142 4.5613C46.631 3.6723 46.596 3.9453 45.742 4.0468C43.992 7.4908 41.514 8.5968 37.216 8.5478C32.3405 8.5163 25.246 4.0818 25.519 5.3453C26.135 8.0368 28.998 14.0393 27.2235 12.8108C25.6555 11.6873 23.5415 5.3453 20.8815 4.3198C16.8915 2.7518 12.3905 2.9898 8.80997 3.6198C8.65765 3.64143 8.51172 3.69542 8.38199 3.77814C8.25226 3.86085 8.14174 3.97038 8.05786 4.09935C7.97398 4.22832 7.91868 4.37376 7.89567 4.52588C7.87266 4.678 7.88248 4.83329 7.92447 4.9813C8.64897 7.9318 10.4515 14.6483 11.407 18.3303Z" fill="#FF9F1C"/>
<path d="M60.2357 22.4252C61.9087 20.4127 62.3357 19.1842 64.5337 22.5267C63.9527 22.2537 63.4837 22.0472 63.2352 22.1522C62.7382 22.3657 62.4932 23.2862 62.2132 23.0027C62.0767 22.9012 61.9087 22.7647 61.8037 22.6982C61.2262 22.1837 61.4992 23.6852 62.4512 23.7867C62.7592 23.8217 63.0672 23.4367 63.3402 22.9677C63.4767 22.7647 63.5747 22.8032 63.7147 22.8662C64.3202 23.1532 65.2162 23.5837 65.2827 22.6982C65.3492 21.8127 63.2702 20.0382 63.1022 19.8982C62.5212 19.4887 61.7722 19.5237 61.0897 20.2727C60.7152 20.6822 59.2802 22.3167 59.2137 22.5897C59.1437 23.0727 59.4867 23.3457 60.2357 22.4252Z" fill="#001434"/>
<path d="M50.2782 22.6981C50.7227 22.6281 51.3842 21.7881 52.0282 21.0951C52.2732 20.8256 52.8472 20.7451 53.1552 20.6856C53.5262 20.6086 53.4597 20.8221 53.4597 20.9586C53.4597 23.0586 54.4047 22.6771 56.0182 21.2631C56.4977 20.8676 56.5152 22.2186 57.3482 22.3131C57.9607 22.3831 59.1542 21.0881 58.8147 20.7801C58.4052 20.3706 57.9817 21.6971 57.4147 21.6341C57.0647 21.5991 56.9002 20.5421 56.3892 20.4406C55.8117 20.3356 55.1292 21.1196 54.4467 21.5641C53.7642 22.0086 54.8527 19.3416 52.9452 20.0311C54.1387 18.8026 55.9937 16.3036 57.1732 17.3361C58.3527 18.3686 59.6617 20.3881 60.2077 20.3356C60.6522 20.2691 60.1062 19.7231 59.7667 19.2856C57.2782 16.1846 56.6972 15.4356 53.9707 17.9241C53.6207 18.2286 52.7072 19.3241 51.8217 20.2761C50.4847 21.7426 49.5292 22.8136 50.2782 22.6981Z" fill="#001434"/>
<path d="M14.4415 45.8819C13.4475 45.0699 13.087 45.2484 12.429 46.1549C12.331 46.2949 12.2575 46.3964 12.0195 46.2249C11.7815 46.0534 11.442 45.8154 11.3195 46.0534C11.197 46.2914 11.897 47.0089 12.3065 47.0439C12.9575 47.0439 13.0765 45.9099 13.57 46.1549C14.27 46.5329 15.5125 47.3484 15.614 46.4279C15.7155 45.5074 13.129 43.1869 12.954 43.0539C11.6835 42.0879 10.4585 44.5659 9.40855 45.8539C9.13555 46.2039 9.61505 46.6379 10.2275 45.8854C11.4385 44.3979 11.9775 43.2289 12.5445 43.6034C12.9225 43.8414 13.9795 45.0034 14.592 45.7489C14.949 46.1899 14.543 45.9134 14.4415 45.8819Z" fill="#001434"/>
<path d="M31.7492 41.0766C31.538 41.0442 31.3225 41.0936 31.1467 41.2148C30.9708 41.3361 30.848 41.5199 30.8032 41.7288C30.7585 41.9377 30.7953 42.1557 30.9061 42.3383C31.0169 42.5209 31.1933 42.6543 31.3992 42.7111C32.6837 43.0541 32.9217 41.2131 31.7492 41.0766Z" fill="#001434"/>
<path d="M4.62099 43.7365C5.03049 46.498 6.22399 45.168 7.31599 43.53C7.62749 43.117 8.10699 44.293 8.50949 44.0095C8.85949 43.7365 7.89349 42.5745 7.24599 42.746C6.59849 42.9175 5.43999 45.2135 5.43999 44.2475C5.26849 43.4635 5.16699 42.9175 4.85899 42.816C4.48449 42.6795 3.63399 43.292 3.49749 43.257C3.36099 43.222 3.32599 43.1205 3.25599 42.984C4.44949 41.759 5.61149 40.121 6.73499 40.2225C7.85849 40.324 9.68199 43.894 10.452 43.53C10.7285 43.4005 10.3155 42.8475 9.90599 42.4065C8.43949 40.7685 7.80599 39.589 6.69999 39.5085C4.90099 39.372 2.40899 43.2185 0.357989 45.2695C0.189989 45.476 0.189989 45.7805 0.564489 45.7455C1.14199 45.644 1.75799 44.7935 2.74499 43.53C3.09499 44.2125 3.79499 43.9395 4.31299 43.565C4.62099 43.4285 4.62099 43.6 4.62099 43.7365Z" fill="#001434"/>
<path d="M12.9403 17.8543C12.4608 16.6923 10.6828 8.85932 9.79029 5.95432C9.20929 4.04332 8.63179 4.28482 8.76829 4.72582C8.76829 4.76432 11.9638 16.9758 11.9743 17.0038C12.3943 18.3303 13.1118 18.2638 12.9403 17.8543Z" fill="#001434"/>
<path d="M55.2237 63.5816C52.2557 60.8866 52.1892 60.3756 49.2737 60.4106C50.1592 59.9171 47.8422 54.6356 46.8517 47.0091C49.1372 43.9746 50.4322 41.4091 50.1277 38.3151C55.2762 35.5501 56.5712 27.9481 52.3082 25.3896C52.0002 25.2531 51.6957 25.4246 51.7307 25.9006C51.8672 27.3356 49.8862 27.4371 49.0357 26.4816C47.7407 25.0501 48.8292 22.1171 46.9357 19.0126C49.0147 16.6606 49.5957 12.3976 49.1512 8.9536C48.6752 5.2366 46.4247 1.7611 45.1612 4.1131C44.1392 6.0556 41.6822 7.2631 38.3082 7.0811C35.8582 6.9761 33.6042 6.0906 31.0807 4.8271C22.5792 0.627102 16.4367 1.3271 8.64217 1.7261C8.50567 0.872103 7.99467 0.770603 7.00417 0.805603C6.22017 0.840603 5.74417 1.1136 6.11867 2.3386C5.76867 2.7726 5.63217 2.6081 8.33417 11.8201C9.51367 15.8346 9.97217 19.2191 11.0292 20.9586C11.4037 22.4251 11.7782 23.8916 12.1877 25.3546C10.4832 27.1991 11.5752 33.7791 14.2877 33.7546C16.9127 43.8486 19.0267 52.6126 19.5377 54.7266C17.3887 54.8946 15.9852 55.1256 15.4777 55.5106C14.6832 56.1126 11.5927 60.5226 10.9102 60.6941C10.3992 60.8306 8.38667 60.3196 7.60267 60.5891C6.47567 60.9671 3.88567 63.5571 3.75267 64.0331C3.68267 64.3061 3.95567 64.7506 4.80267 63.9666C7.08817 61.9191 7.32617 61.6811 7.83717 61.4431C8.34817 61.2051 10.2242 61.8526 11.1097 61.6146C11.8097 61.4431 12.3032 60.6241 14.3507 58.1146C15.0507 57.2641 15.7822 56.3436 15.9852 56.1721C16.4297 55.7976 19.4642 55.5911 20.4547 55.5246C23.2547 55.3181 22.3972 55.9656 23.6257 57.5686C24.3257 58.5276 24.9172 58.3211 33.2402 58.3211C34.6052 58.3211 35.0462 61.1841 37.5032 61.3206C38.8332 61.3906 45.9032 61.3626 47.3032 61.3206C50.7472 61.2191 51.1917 61.4921 52.2032 62.1746C53.2147 62.8571 55.9202 65.7866 56.2947 65.0376C56.5187 64.7051 56.0427 64.2956 55.2237 63.5816ZM49.3262 39.6136C49.1197 41.9656 47.8247 44.5906 45.5742 47.2156C44.5242 45.3746 41.8922 43.0156 39.9147 41.9306C41.2692 40.0686 42.1092 39.3791 41.4477 38.6581C41.0977 38.2836 40.4922 37.6711 40.0477 37.7376C39.8062 37.7726 39.8412 38.0876 39.9777 38.2486C40.2157 38.5986 40.9332 39.1341 40.6952 39.4771C40.1967 40.197 39.6616 40.8909 39.0922 41.5561C37.0797 40.9786 35.5117 42.5116 36.4322 44.3876C36.1526 44.7963 35.9649 45.2608 35.8821 45.749C35.7993 46.2372 35.8234 46.7376 35.9527 47.2156C33.5027 47.5656 24.8717 45.4446 25.6557 43.1591C26.0302 42.0671 27.3112 40.8421 27.3287 39.8516C27.3812 36.7506 24.8262 37.5066 27.9062 33.5096C28.1624 33.5989 28.4137 33.7018 28.6587 33.8176C28.4872 34.3286 27.9587 34.7766 28.2807 35.4521C28.5782 36.0716 29.9537 36.7821 30.3282 36.4776C30.8392 36.0681 29.2362 35.7251 29.0332 35.0776C29.0332 34.6331 29.7332 34.0906 29.4427 33.5446C28.8617 32.4946 25.8937 32.8621 28.1792 30.8146C28.8094 31.3869 29.5162 31.8686 30.2792 32.2461C30.3107 38.9311 36.6212 41.6961 31.3012 44.6921C30.8217 44.9651 31.4692 45.5811 32.6312 44.8286C35.0812 43.2291 34.6752 41.3846 32.6977 37.9406C33.9927 36.8906 35.5957 35.3156 36.3797 33.6461C37.4189 33.686 38.4594 33.6167 39.4842 33.4396C40.0687 35.6586 37.7587 34.4476 37.0622 35.3156C36.6527 35.8266 36.8942 36.3411 36.6877 36.5791C36.4147 36.9536 34.7102 36.9886 34.5387 37.6011C34.3672 38.2136 36.4847 37.7026 37.0307 37.3281C37.9967 36.7471 37.2827 35.7741 37.9162 35.7601C40.0652 35.7076 40.8492 35.2141 40.2682 33.2366C41.463 32.9176 42.5553 32.2955 43.4392 31.4306C46.4247 33.0616 49.6307 36.1661 49.3262 39.6136ZM40.5762 48.4441C40.2017 48.3076 40.0967 48.6821 39.1097 49.8756C38.57 49.5187 38.0773 49.0954 37.6432 48.6156C38.2557 48.1046 39.1447 47.0126 38.7352 46.6731C38.2312 46.2391 38.1577 47.0231 37.1637 47.9331C35.9037 45.8541 37.6782 44.8636 37.1987 44.0446C37.0692 43.8454 37.0032 43.6116 37.0094 43.3742C37.0157 43.1367 37.0939 42.9067 37.2337 42.7146C39.3127 40.9646 44.1567 46.3651 44.9722 47.8981C42.6902 50.3201 41.0172 50.5231 39.9287 50.2186C40.6637 49.3611 40.9717 48.5771 40.5622 48.4406L40.5762 48.4441ZM27.6262 30.1671C27.5266 30.2491 27.4352 30.3405 27.3532 30.4401C26.4992 30.5766 24.4202 31.0526 23.8742 30.9511C22.5477 30.0236 20.4722 25.6766 18.7257 25.3266C17.5729 24.3374 16.1173 23.7707 14.5992 23.7201C14.3927 22.9676 14.1897 22.1836 13.9832 21.4346C23.5312 19.8316 19.4747 21.9456 25.6452 22.6981C25.6341 23.6638 25.8754 24.6157 26.3452 25.4596C26.2402 26.7546 25.9322 27.7416 27.6052 30.1636L27.6262 30.1671ZM30.5907 25.1901C30.6922 25.8376 30.9407 26.2821 31.2907 26.2121C32.0747 26.1106 31.0037 24.5916 31.7002 24.0281C31.9087 23.8626 32.1672 23.7725 32.4334 23.7725C32.6997 23.7725 32.9581 23.8626 33.1667 24.0281C33.3697 24.1681 33.6427 24.1646 33.7127 23.9616C33.8807 23.4506 33.1317 23.0411 32.7222 22.9711C33.0302 21.3366 31.5987 20.3811 29.9222 20.3811C30.8427 19.8001 32.0222 20.6541 32.4457 20.6541C33.1632 20.6541 32.9567 19.8701 32.0712 19.6321C33.6077 19.5971 35.2422 19.6636 36.0962 19.3591C36.0989 19.5642 36.1617 19.7641 36.2767 19.9339C36.3918 20.1037 36.5542 20.2361 36.7437 20.3146C35.3437 20.4511 35.5152 21.4381 36.0437 21.3016C37.7482 20.5526 41.0557 22.2571 41.4337 23.9266C41.8397 25.7011 44.3317 25.9741 44.1952 28.0531C43.7997 33.1701 36.4042 33.7371 31.5777 31.9031C28.2702 30.5731 25.9182 27.7031 27.7942 24.5041C29.4672 24.3956 30.3982 25.1866 30.5697 25.1866L30.5907 25.1901ZM29.9432 21.2351C31.2732 21.3016 32.1587 21.8476 31.8542 23.0411C31.5587 23.1183 31.2892 23.2728 31.0732 23.4887C30.8573 23.7046 30.7028 23.9742 30.6257 24.2696C30.4624 24.1749 30.2915 24.0941 30.1147 24.0281C30.1219 23.0924 30.0576 22.1575 29.9222 21.2316L29.9432 21.2351ZM31.3992 34.3636C31.2635 33.7881 31.1723 33.2031 31.1262 32.6136C32.5239 33.1107 33.9784 33.4305 35.4557 33.5656C35.1612 34.1027 34.8091 34.6062 34.4057 35.0671C33.8492 33.3871 32.4807 32.9636 31.3992 34.3636ZM33.7512 35.7636C33.3011 36.2352 32.823 36.6793 32.3197 37.0936C32.0599 36.5579 31.8547 35.9974 31.7072 35.4206C31.8318 35.1903 31.9795 34.9733 32.1482 34.7731C32.2172 34.876 32.3073 34.9631 32.4126 35.0285C32.5178 35.0938 32.6358 35.136 32.7587 35.1523C32.8815 35.1685 33.0064 35.1584 33.125 35.1226C33.2437 35.0867 33.3533 35.0261 33.4467 34.9446C33.5695 35.2078 33.6679 35.4822 33.7407 35.7636H33.7512ZM17.2837 25.3616C16.9834 25.4633 16.721 25.6537 16.5312 25.9076C15.9537 25.2076 15.0647 25.1236 14.8617 24.6126C15.7093 24.6847 16.5316 24.9377 17.2732 25.3546L17.2837 25.3616ZM17.1122 26.5901C18.2042 24.9871 19.6707 26.8981 20.7942 28.4661C19.968 29.762 18.875 30.8669 17.5882 31.7071C17.7961 30.9868 17.8661 30.234 17.7947 29.4881C18.2707 29.4881 19.3102 28.9036 19.1247 28.2281C19.0302 27.8781 18.7747 28.0566 18.6137 28.2281C17.2382 29.4636 16.2827 27.7416 17.1017 26.5831L17.1122 26.5901ZM21.3122 29.1836C23.3597 32.1481 23.4612 32.0816 26.5972 31.4341C26.4535 31.7306 26.4263 32.0702 26.5209 32.3858C26.6155 32.7014 26.8251 32.97 27.1082 33.1386C23.3877 37.7376 27.4582 37.8146 26.1562 40.6041C23.8007 41.9691 21.2562 41.2516 18.7572 39.0711C18.2427 37.0936 17.6652 35.0146 17.1192 32.9321C18.7855 32.024 20.2156 30.7377 21.2947 29.1766L21.3122 29.1836ZM47.4992 24.0246C47.5727 25.1866 47.7057 26.1736 48.4197 26.9926C49.6832 28.4591 52.0702 28.1861 52.5812 26.5481C54.7302 29.0401 54.9017 34.2201 49.9562 37.4611C49.3437 35.2806 47.6042 32.7886 44.0902 30.7446C45.5672 28.8441 45.5742 26.7931 43.4427 25.0501C41.4442 23.4506 42.7952 22.5196 39.5927 20.8886C37.7867 20.0381 37.3422 19.7301 37.2057 19.3556C36.9677 18.7081 37.7867 18.2286 37.5557 17.7876C37.5319 17.7421 37.4968 17.7034 37.4538 17.6754C37.4107 17.6473 37.3612 17.6307 37.31 17.6273C37.2587 17.6239 37.2075 17.6337 37.1611 17.6556C37.1147 17.6775 37.0746 17.7109 37.0447 17.7526C34.9237 20.2796 30.7447 16.6396 27.8712 21.6411C27.4267 22.6631 27.5632 23.5136 26.8807 24.4026C26.1807 22.5266 26.6077 19.7651 28.6307 17.5811C31.1542 14.7811 35.3157 15.1591 37.9407 15.8766C38.3054 15.9813 38.6866 16.0157 39.0642 15.9781C44.3912 15.3936 47.1982 19.5306 47.4992 24.0246ZM6.89917 1.5196C7.27367 1.4531 7.74967 1.4181 7.74967 1.7926L6.86417 1.8976C6.83617 1.8136 6.73467 1.5546 6.89917 1.5196ZM11.2287 19.5271C10.3432 16.2161 7.88617 7.2141 6.96567 3.7036C6.82917 3.2276 6.69267 2.7831 7.64817 2.6816C11.6732 2.2721 17.7982 1.9641 21.7987 2.5766C28.7987 3.6266 32.3722 7.5221 38.2697 7.8966C42.0217 8.1381 44.8182 6.7381 45.9417 4.4211C46.1482 4.0116 46.2147 4.0711 46.4877 4.3511C49.3192 7.5606 48.9377 14.5361 46.4177 18.1621C42.6902 13.6646 40.2612 15.7506 37.2477 14.9211C31.6932 13.2656 26.1457 16.1356 25.6977 21.8441C22.7997 21.5711 22.9712 20.9236 21.1967 20.2761C18.2917 19.2506 11.9252 21.9351 11.2357 19.5271H11.2287ZM14.1617 32.8586C12.6287 32.5856 12.1177 29.3796 12.2192 27.3671C12.3557 25.4246 13.9902 26.1071 13.8222 25.5261C13.7172 25.1761 13.3777 25.0851 12.9682 25.1516L11.9462 21.2631C12.3397 21.3472 12.7384 21.4044 13.1397 21.4346C13.8222 23.7516 13.9272 25.2391 14.9107 25.7326C15.4045 25.9698 15.828 26.3317 16.1392 26.7826C15.9765 27.3657 16.001 27.9852 16.2092 28.5536C15.7297 28.6236 14.7427 28.3856 14.8092 28.8616C14.852 28.9844 14.9298 29.0919 15.0331 29.1709C15.1363 29.2499 15.2605 29.2969 15.3902 29.3061C15.8984 29.3738 16.4105 29.4078 16.9232 29.4076C16.9652 29.9067 16.9536 30.4086 16.8882 30.9056C16.3557 30.9599 15.8186 30.9493 15.2887 30.8741C14.7427 30.8041 14.9107 31.6931 15.8312 31.7946C16.0923 31.8121 16.3541 31.8121 16.6152 31.7946C16.2162 32.7886 15.2607 33.0616 14.1687 32.8586H14.1617ZM20.3322 54.6146C19.8912 52.8051 17.7772 44.0096 15.1172 33.7441C15.5385 33.7126 15.9469 33.5845 16.3107 33.3696C18.8692 42.9176 21.2527 52.0911 21.8687 54.4781C21.3621 54.5551 20.8513 54.6006 20.3392 54.6146H20.3322ZM23.6992 55.3986C23.6219 55.2048 23.5022 55.0307 23.349 54.889C23.1958 54.7473 23.0129 54.6416 22.8137 54.5796C22.4392 53.1796 20.9727 47.4186 19.0967 40.3941C21.2457 41.9271 23.1882 42.6796 25.4737 41.7941C24.7737 42.7846 24.2102 43.9781 25.4387 44.9441C22.7787 48.3181 23.5977 50.2606 25.2672 54.0826C24.8087 54.4781 24.0912 54.9191 23.6992 55.3986ZM33.8282 57.3411C31.7457 57.3761 27.3147 57.3761 25.3372 57.3411C24.6372 57.3411 24.0737 56.9911 24.1787 56.2491C24.3152 55.7031 25.3722 55.1256 25.8132 54.7161C29.4287 55.2936 35.0882 56.2491 35.5327 56.6936C35.3437 57.5126 34.6297 57.2711 33.8107 57.3411H33.8282ZM35.6692 58.9091C35.4593 58.6439 35.2313 58.3936 34.9867 58.1601C38.2592 57.5441 34.6787 53.3511 35.6867 51.9861C36.3867 54.3731 36.9467 55.6366 37.5277 57.1346C36.9117 57.6491 35.9912 58.1636 35.6517 58.9091H35.6692ZM48.4197 59.9311C47.0582 60.9811 41.1922 60.3406 37.5452 60.4106C36.8452 60.4106 36.2467 60.0361 36.3832 59.3186C36.5197 58.7726 37.6467 58.1601 38.0562 57.7156C39.6312 57.9851 49.0077 59.3326 48.4022 59.9311H48.4197ZM38.3292 56.8966C37.6292 54.9891 36.9957 53.1621 35.9737 49.8721C35.6832 48.9306 34.9237 49.4521 35.3962 51.0341C33.7932 52.1226 35.0462 53.9636 35.3962 55.7381C34.5107 55.2936 29.5652 54.5096 26.0862 53.9321C24.7212 50.4881 23.4262 48.7486 26.0862 45.4411C29.2922 47.5201 33.7267 48.1326 36.2362 48.0661C38.6582 52.3956 42.9212 51.9546 46.1272 47.8631C46.5367 51.7131 47.7302 55.3636 48.5772 58.9441C46.6312 58.1041 41.9202 57.5756 38.3117 56.8966H38.3292Z" fill="#001434"/>
<path d="M66.4762 43.4284C65.6117 42.3539 64.3972 41.5174 63.7497 41.3284C62.6367 41.0029 61.7093 42.515 58.1218 46.8865C57.4218 46.169 55.6997 44.601 54.8492 44.601C53.7572 44.601 48.2343 49.8859 50.2468 50.1589C50.7578 50.2289 52.2907 48.7274 52.9382 48.4544C52.6302 50.2044 54.4502 49.7319 55.5317 48.5909C56.0777 48.0099 55.8817 47.3555 55.5632 47.6355C54.7302 48.3355 53.8132 48.934 53.5857 48.899C53.9357 46.82 52.1192 48.01 50.7857 49.102C51.6747 47.842 54.2647 45.2835 54.8807 45.252C55.3217 45.252 56.6517 46.302 57.7087 47.352C57.2992 48.1045 57.4952 48.7099 57.9817 48.1044C58.4682 47.4989 58.6817 47.2505 59.4482 46.2635C60.3687 45.6825 61.2227 45.2729 61.4607 45.3744C61.6987 45.4759 61.8702 46.9424 62.5527 46.9774C62.9937 47.0124 63.4732 46.2775 64.0507 45.273C64.1207 45.1715 64.2222 44.9999 64.4007 45.2064C64.7507 45.6124 65.1497 45.9065 65.4227 45.749C66.2767 45.238 65.9722 44.4924 65.7307 44.6605C65.6195 44.7413 65.5164 44.8327 65.4227 44.9334C65.1287 45.2274 64.7647 44.2859 64.1627 44.2859C63.3472 44.3349 62.7627 46.736 62.4897 45.9905C62.0067 44.608 61.7372 44.3174 60.3897 45.0349C61.5832 43.7399 62.7767 41.8849 63.4942 41.8849C64.0402 41.8849 65.3702 43.0435 66.2942 44.202C66.5777 44.7585 67.0712 44.1634 66.4762 43.4284Z" fill="#001434"/>
<path d="M31.5917 28.7322C31.8703 28.9343 32.2113 29.0314 32.5546 29.0064C32.8979 28.9814 33.2213 28.836 33.4677 28.5957C33.9472 29.3132 36.5022 29.1767 36.5022 28.1512C36.5022 27.9132 36.2992 27.7767 35.9912 27.9482C35.7266 28.1047 35.4308 28.2012 35.1248 28.2309C34.8187 28.2605 34.5099 28.2225 34.2202 28.1197C33.8107 27.9482 33.9787 27.3007 33.4677 27.2657C32.9567 27.2307 33.0267 28.0147 32.6487 28.1197C32.54 28.1534 32.4249 28.1615 32.3126 28.1433C32.2002 28.1251 32.0936 28.0811 32.0012 28.0147C31.4902 27.6052 30.9442 28.1512 31.5917 28.7322Z" fill="#001434"/>
<path d="M34.4933 30.0622C33.9855 30.1142 33.476 29.9812 33.0583 29.6877C32.6488 29.3132 32.2848 29.9502 32.8553 30.4717C33.5833 31.1402 34.7663 30.9477 34.9343 30.4367C35.0358 30.1987 34.7313 30.0622 34.4933 30.0622Z" fill="#001434"/>
<path d="M35.9912 26.107C38.0912 25.9005 38.9242 27.094 39.9812 26.107C42.4312 23.79 39.0152 20.472 35.7182 22.047C34.1992 22.8135 33.9472 26.3135 35.9912 26.107ZM38.6862 22.698C40.0512 23.0025 40.2192 24.8435 39.3862 25.498C39.0117 25.806 38.6022 25.33 38.0247 25.295C37.9232 24.3745 37.7867 23.384 37.6152 22.5335C37.9785 22.5356 38.3393 22.5912 38.6862 22.698Z" fill="#001434"/>
<path d="M32.5823 27.0135C33.0583 26.842 33.3313 26.639 34.0138 26.912C34.5248 27.08 34.7138 26.366 34.1503 26.093C33.8449 25.9532 33.5083 25.8955 33.1738 25.9256C32.8393 25.9557 32.5184 26.0725 32.2428 26.2645C31.7983 26.6635 32.0013 27.2305 32.5823 27.0135Z" fill="#001434"/>
</svg>
